<mxfile host="app.diagrams.net" modified="2024-04-20T08:50:04.713Z" agent="Mozilla/5.0 (Macintosh; Intel Mac OS X 10_15_7) AppleWebKit/537.36 (KHTML, like Gecko) Chrome/123.0.0.0 Safari/537.36" etag="3RrF6jQwSmiqIa1xSppS" version="24.2.5" type="device">
  <diagram name="第 1 页" id="8raenebxMZbXHB4DPFVJ">
    <mxGraphModel dx="4039" dy="1268" grid="1" gridSize="10" guides="1" tooltips="1" connect="0" arrows="1" fold="1" page="1" pageScale="1" pageWidth="827" pageHeight="1169" background="#ffffff" math="0" shadow="0">
      <root>
        <mxCell id="0" />
        <mxCell id="1" parent="0" />
        <mxCell id="Gp8Uw24KBsA9sYgud_FF-171" value="&lt;font color=&quot;#6abd46&quot; style=&quot;font-size: 25px;&quot;&gt;云托管&lt;/font&gt;" style="rounded=0;whiteSpace=wrap;html=1;sketch=1;hachureGap=4;jiggle=2;curveFitting=1;fontFamily=Helvetica;fillColor=#d5e8d4;strokeColor=#82b366;verticalAlign=top;fontStyle=1;align=left;" vertex="1" parent="1">
          <mxGeometry x="-149" y="3899.88" width="1019" height="740.12" as="geometry" />
        </mxCell>
        <mxCell id="Gp8Uw24KBsA9sYgud_FF-139" value="&lt;span style=&quot;color: rgb(0, 0, 0); font-family: &amp;quot;Architects Daughter&amp;quot;; text-align: center; text-wrap: nowrap;&quot;&gt;&lt;font size=&quot;1&quot; style=&quot;&quot;&gt;&lt;b style=&quot;font-size: 22px;&quot;&gt;存储&lt;/b&gt;&lt;/font&gt;&lt;/span&gt;" style="rounded=0;whiteSpace=wrap;html=1;sketch=1;hachureGap=4;jiggle=2;curveFitting=1;fontFamily=Helvetica;fillColor=none;verticalAlign=top;align=left;fontSize=16;dashed=1;" vertex="1" parent="1">
          <mxGeometry x="-145" y="4639.88" width="1015" height="190" as="geometry" />
        </mxCell>
        <mxCell id="Gp8Uw24KBsA9sYgud_FF-172" style="edgeStyle=orthogonalEdgeStyle;rounded=0;sketch=1;hachureGap=4;jiggle=2;curveFitting=1;orthogonalLoop=1;jettySize=auto;html=1;fontFamily=Architects Daughter;fontSource=https%3A%2F%2Ffonts.googleapis.com%2Fcss%3Ffamily%3DArchitects%2BDaughter;" edge="1" parent="1" source="Gp8Uw24KBsA9sYgud_FF-149" target="Gp8Uw24KBsA9sYgud_FF-171">
          <mxGeometry relative="1" as="geometry" />
        </mxCell>
        <mxCell id="Gp8Uw24KBsA9sYgud_FF-173" value="&lt;font style=&quot;font-size: 20px;&quot; face=&quot;Helvetica&quot;&gt;云调用&lt;/font&gt;" style="edgeLabel;html=1;align=center;verticalAlign=middle;resizable=0;points=[];sketch=1;hachureGap=4;jiggle=2;curveFitting=1;fontFamily=Architects Daughter;fontSource=https%3A%2F%2Ffonts.googleapis.com%2Fcss%3Ffamily%3DArchitects%2BDaughter;" vertex="1" connectable="0" parent="Gp8Uw24KBsA9sYgud_FF-172">
          <mxGeometry x="0.0086" y="2" relative="1" as="geometry">
            <mxPoint y="-1" as="offset" />
          </mxGeometry>
        </mxCell>
        <mxCell id="Gp8Uw24KBsA9sYgud_FF-149" value="&lt;font style=&quot;font-size: 22px;&quot; face=&quot;Helvetica&quot;&gt;&lt;b&gt;用户终端&lt;/b&gt;&lt;/font&gt;" style="rounded=0;whiteSpace=wrap;html=1;sketch=1;hachureGap=4;jiggle=2;curveFitting=1;fontFamily=Architects Daughter;fontSource=https%3A%2F%2Ffonts.googleapis.com%2Fcss%3Ffamily%3DArchitects%2BDaughter;fillColor=#dae8fc;strokeColor=#6c8ebf;dashed=1;verticalAlign=top;align=left;" vertex="1" parent="1">
          <mxGeometry x="109.75" y="3630" width="500" height="170" as="geometry" />
        </mxCell>
        <mxCell id="Gp8Uw24KBsA9sYgud_FF-128" value="" style="rounded=0;whiteSpace=wrap;html=1;sketch=1;hachureGap=4;jiggle=2;curveFitting=1;fontFamily=Architects Daughter;fontSource=https%3A%2F%2Ffonts.googleapis.com%2Fcss%3Ffamily%3DArchitects%2BDaughter;fillColor=#f5f5f5;fontColor=#333333;strokeColor=#666666;" vertex="1" parent="1">
          <mxGeometry x="535.75" y="4663" width="300" height="150" as="geometry" />
        </mxCell>
        <mxCell id="Gp8Uw24KBsA9sYgud_FF-124" value="" style="rounded=0;whiteSpace=wrap;html=1;sketch=1;hachureGap=4;jiggle=2;curveFitting=1;fontFamily=Architects Daughter;fontSource=https%3A%2F%2Ffonts.googleapis.com%2Fcss%3Ffamily%3DArchitects%2BDaughter;fillColor=#f5f5f5;fontColor=#333333;strokeColor=#666666;" vertex="1" parent="1">
          <mxGeometry x="-112" y="4663" width="300" height="150" as="geometry" />
        </mxCell>
        <mxCell id="Gp8Uw24KBsA9sYgud_FF-120" value="" style="rounded=0;whiteSpace=wrap;html=1;sketch=1;hachureGap=4;jiggle=2;curveFitting=1;fontFamily=Architects Daughter;fontSource=https%3A%2F%2Ffonts.googleapis.com%2Fcss%3Ffamily%3DArchitects%2BDaughter;fillColor=#f5f5f5;fontColor=#333333;strokeColor=#666666;" vertex="1" parent="1">
          <mxGeometry x="212.49999999999997" y="4663" width="300" height="150" as="geometry" />
        </mxCell>
        <mxCell id="Gp8Uw24KBsA9sYgud_FF-102" value="&lt;span style=&quot;font-size: 18px;&quot;&gt;小程序服务&lt;/span&gt;" style="rounded=0;whiteSpace=wrap;html=1;sketch=1;hachureGap=4;jiggle=2;curveFitting=1;fontFamily=Architects Daughter;fontSource=https%3A%2F%2Ffonts.googleapis.com%2Fcss%3Ffamily%3DArchitects%2BDaughter;fillColor=#f5f5f5;fontColor=#333333;strokeColor=#666666;align=left;verticalAlign=top;" vertex="1" parent="1">
          <mxGeometry x="-112" y="4372" width="450" height="150" as="geometry" />
        </mxCell>
        <mxCell id="Gp8Uw24KBsA9sYgud_FF-133" style="rounded=0;sketch=1;hachureGap=4;jiggle=2;curveFitting=1;orthogonalLoop=1;jettySize=auto;html=1;fontFamily=Architects Daughter;fontSource=https%3A%2F%2Ffonts.googleapis.com%2Fcss%3Ffamily%3DArchitects%2BDaughter;" edge="1" parent="1" source="Gp8Uw24KBsA9sYgud_FF-100" target="Gp8Uw24KBsA9sYgud_FF-36">
          <mxGeometry relative="1" as="geometry" />
        </mxCell>
        <mxCell id="Gp8Uw24KBsA9sYgud_FF-100" value="&lt;font style=&quot;font-size: 20px;&quot;&gt;安全防护&lt;/font&gt;" style="rounded=0;whiteSpace=wrap;html=1;sketch=1;hachureGap=4;jiggle=2;curveFitting=1;fontFamily=Helvetica;fillColor=#f5f5f5;fontColor=#333333;strokeColor=#666666;dashed=1;verticalAlign=top;align=left;" vertex="1" parent="1">
          <mxGeometry x="113.75" y="3932" width="498.5" height="172" as="geometry" />
        </mxCell>
        <mxCell id="Gp8Uw24KBsA9sYgud_FF-93" value="&lt;font face=&quot;Helvetica&quot; style=&quot;font-size: 22px;&quot;&gt;&lt;b&gt;运维&lt;/b&gt;&lt;/font&gt;" style="rounded=0;whiteSpace=wrap;html=1;sketch=1;hachureGap=4;jiggle=2;curveFitting=1;fontFamily=Architects Daughter;fontSource=https%3A%2F%2Ffonts.googleapis.com%2Fcss%3Ffamily%3DArchitects%2BDaughter;verticalAlign=top;fillColor=none;" vertex="1" parent="1">
          <mxGeometry x="-340" y="3899.88" width="190" height="930" as="geometry" />
        </mxCell>
        <mxCell id="zBp83v5MwMUTdgpoldUR-12" style="rounded=0;sketch=1;hachureGap=4;jiggle=2;curveFitting=1;orthogonalLoop=1;jettySize=auto;html=1;fontFamily=Architects Daughter;fontSource=https%3A%2F%2Ffonts.googleapis.com%2Fcss%3Ffamily%3DArchitects%2BDaughter;fontSize=16;" parent="1" source="zBp83v5MwMUTdgpoldUR-3" target="zBp83v5MwMUTdgpoldUR-7" edge="1">
          <mxGeometry relative="1" as="geometry" />
        </mxCell>
        <mxCell id="zBp83v5MwMUTdgpoldUR-65" style="edgeStyle=orthogonalEdgeStyle;rounded=0;sketch=1;hachureGap=4;jiggle=2;curveFitting=1;orthogonalLoop=1;jettySize=auto;html=1;fontFamily=Architects Daughter;fontSource=https%3A%2F%2Ffonts.googleapis.com%2Fcss%3Ffamily%3DArchitects%2BDaughter;fontSize=16;" parent="1" source="zBp83v5MwMUTdgpoldUR-3" target="zBp83v5MwMUTdgpoldUR-64" edge="1">
          <mxGeometry relative="1" as="geometry" />
        </mxCell>
        <mxCell id="zBp83v5MwMUTdgpoldUR-3" value="用户端" style="shape=umlActor;verticalLabelPosition=bottom;verticalAlign=top;html=1;sketch=1;hachureGap=4;jiggle=2;curveFitting=1;fontFamily=Architects Daughter;fontSource=https%3A%2F%2Ffonts.googleapis.com%2Fcss%3Ffamily%3DArchitects%2BDaughter;fontSize=20;fillColor=#f5f5f5;fontColor=#333333;strokeColor=#666666;" parent="1" vertex="1">
          <mxGeometry x="120" y="358" width="30" height="60" as="geometry" />
        </mxCell>
        <mxCell id="zBp83v5MwMUTdgpoldUR-6" value="预约" style="ellipse;whiteSpace=wrap;html=1;sketch=1;hachureGap=4;jiggle=2;curveFitting=1;fontFamily=Architects Daughter;fontSource=https%3A%2F%2Ffonts.googleapis.com%2Fcss%3Ffamily%3DArchitects%2BDaughter;fontSize=20;fillColor=#dae8fc;strokeColor=#6c8ebf;" parent="1" vertex="1">
          <mxGeometry x="330" y="230" width="140" height="70" as="geometry" />
        </mxCell>
        <mxCell id="zBp83v5MwMUTdgpoldUR-7" value="充值" style="ellipse;whiteSpace=wrap;html=1;sketch=1;hachureGap=4;jiggle=2;curveFitting=1;fontFamily=Architects Daughter;fontSource=https%3A%2F%2Ffonts.googleapis.com%2Fcss%3Ffamily%3DArchitects%2BDaughter;fontSize=20;fillColor=#e1d5e7;strokeColor=#9673a6;" parent="1" vertex="1">
          <mxGeometry x="330" y="348" width="140" height="70" as="geometry" />
        </mxCell>
        <mxCell id="zBp83v5MwMUTdgpoldUR-8" value="开门" style="ellipse;whiteSpace=wrap;html=1;sketch=1;hachureGap=4;jiggle=2;curveFitting=1;fontFamily=Architects Daughter;fontSource=https%3A%2F%2Ffonts.googleapis.com%2Fcss%3Ffamily%3DArchitects%2BDaughter;fontSize=20;fillColor=#ffe6cc;strokeColor=#d79b00;" parent="1" vertex="1">
          <mxGeometry x="-180" y="470" width="140" height="70" as="geometry" />
        </mxCell>
        <mxCell id="zBp83v5MwMUTdgpoldUR-9" value="续费" style="ellipse;whiteSpace=wrap;html=1;sketch=1;hachureGap=4;jiggle=2;curveFitting=1;fontFamily=Architects Daughter;fontSource=https%3A%2F%2Ffonts.googleapis.com%2Fcss%3Ffamily%3DArchitects%2BDaughter;fontSize=20;fillColor=#f8cecc;strokeColor=#b85450;" parent="1" vertex="1">
          <mxGeometry x="330" y="470" width="140" height="70" as="geometry" />
        </mxCell>
        <mxCell id="zBp83v5MwMUTdgpoldUR-10" value="支付" style="ellipse;whiteSpace=wrap;html=1;sketch=1;hachureGap=4;jiggle=2;curveFitting=1;fontFamily=Architects Daughter;fontSource=https%3A%2F%2Ffonts.googleapis.com%2Fcss%3Ffamily%3DArchitects%2BDaughter;fontSize=20;fillColor=#d5e8d4;strokeColor=#82b366;" parent="1" vertex="1">
          <mxGeometry x="610" y="348" width="140" height="70" as="geometry" />
        </mxCell>
        <mxCell id="zBp83v5MwMUTdgpoldUR-11" style="rounded=0;sketch=1;hachureGap=4;jiggle=2;curveFitting=1;orthogonalLoop=1;jettySize=auto;html=1;entryX=0.007;entryY=0.5;entryDx=0;entryDy=0;entryPerimeter=0;fontFamily=Architects Daughter;fontSource=https%3A%2F%2Ffonts.googleapis.com%2Fcss%3Ffamily%3DArchitects%2BDaughter;fontSize=16;" parent="1" source="zBp83v5MwMUTdgpoldUR-3" target="zBp83v5MwMUTdgpoldUR-6" edge="1">
          <mxGeometry relative="1" as="geometry" />
        </mxCell>
        <mxCell id="zBp83v5MwMUTdgpoldUR-13" style="rounded=0;sketch=1;hachureGap=4;jiggle=2;curveFitting=1;orthogonalLoop=1;jettySize=auto;html=1;entryX=1.018;entryY=0.493;entryDx=0;entryDy=0;entryPerimeter=0;fontFamily=Architects Daughter;fontSource=https%3A%2F%2Ffonts.googleapis.com%2Fcss%3Ffamily%3DArchitects%2BDaughter;fontSize=16;" parent="1" source="zBp83v5MwMUTdgpoldUR-3" target="zBp83v5MwMUTdgpoldUR-8" edge="1">
          <mxGeometry relative="1" as="geometry" />
        </mxCell>
        <mxCell id="zBp83v5MwMUTdgpoldUR-14" style="rounded=0;sketch=1;hachureGap=4;jiggle=2;curveFitting=1;orthogonalLoop=1;jettySize=auto;html=1;entryX=-0.007;entryY=0.557;entryDx=0;entryDy=0;entryPerimeter=0;fontFamily=Architects Daughter;fontSource=https%3A%2F%2Ffonts.googleapis.com%2Fcss%3Ffamily%3DArchitects%2BDaughter;fontSize=16;" parent="1" source="zBp83v5MwMUTdgpoldUR-3" target="zBp83v5MwMUTdgpoldUR-9" edge="1">
          <mxGeometry relative="1" as="geometry" />
        </mxCell>
        <mxCell id="zBp83v5MwMUTdgpoldUR-15" value="" style="endArrow=open;endSize=12;dashed=1;html=1;rounded=0;sketch=1;hachureGap=4;jiggle=2;curveFitting=1;fontFamily=Architects Daughter;fontSource=https%3A%2F%2Ffonts.googleapis.com%2Fcss%3Ffamily%3DArchitects%2BDaughter;fontSize=16;entryX=-0.036;entryY=0.429;entryDx=0;entryDy=0;entryPerimeter=0;exitX=1.021;exitY=0.6;exitDx=0;exitDy=0;exitPerimeter=0;" parent="1" source="zBp83v5MwMUTdgpoldUR-6" target="zBp83v5MwMUTdgpoldUR-10" edge="1">
          <mxGeometry width="160" relative="1" as="geometry">
            <mxPoint x="480" y="160" as="sourcePoint" />
            <mxPoint x="630" y="150" as="targetPoint" />
          </mxGeometry>
        </mxCell>
        <mxCell id="zBp83v5MwMUTdgpoldUR-17" value="" style="endArrow=open;endSize=12;dashed=1;html=1;rounded=0;sketch=1;hachureGap=4;jiggle=2;curveFitting=1;fontFamily=Architects Daughter;fontSource=https%3A%2F%2Ffonts.googleapis.com%2Fcss%3Ffamily%3DArchitects%2BDaughter;fontSize=16;entryX=0.007;entryY=0.529;entryDx=0;entryDy=0;entryPerimeter=0;" parent="1" target="zBp83v5MwMUTdgpoldUR-10" edge="1">
          <mxGeometry width="160" relative="1" as="geometry">
            <mxPoint x="470" y="384.5" as="sourcePoint" />
            <mxPoint x="580" y="260" as="targetPoint" />
          </mxGeometry>
        </mxCell>
        <mxCell id="zBp83v5MwMUTdgpoldUR-18" value="一键登录注册" style="ellipse;whiteSpace=wrap;html=1;sketch=1;hachureGap=4;jiggle=2;curveFitting=1;fontFamily=Architects Daughter;fontSource=https%3A%2F%2Ffonts.googleapis.com%2Fcss%3Ffamily%3DArchitects%2BDaughter;fontSize=20;fillColor=#d5e8d4;strokeColor=#82b366;" parent="1" vertex="1">
          <mxGeometry x="-180" y="230" width="140" height="70" as="geometry" />
        </mxCell>
        <mxCell id="zBp83v5MwMUTdgpoldUR-19" style="rounded=0;sketch=1;hachureGap=4;jiggle=2;curveFitting=1;orthogonalLoop=1;jettySize=auto;html=1;entryX=1.018;entryY=0.564;entryDx=0;entryDy=0;entryPerimeter=0;fontFamily=Architects Daughter;fontSource=https%3A%2F%2Ffonts.googleapis.com%2Fcss%3Ffamily%3DArchitects%2BDaughter;fontSize=16;" parent="1" source="zBp83v5MwMUTdgpoldUR-3" target="zBp83v5MwMUTdgpoldUR-18" edge="1">
          <mxGeometry relative="1" as="geometry" />
        </mxCell>
        <mxCell id="zBp83v5MwMUTdgpoldUR-20" value="" style="endArrow=open;endSize=12;dashed=1;html=1;rounded=0;sketch=1;hachureGap=4;jiggle=2;curveFitting=1;fontFamily=Architects Daughter;fontSource=https%3A%2F%2Ffonts.googleapis.com%2Fcss%3Ffamily%3DArchitects%2BDaughter;fontSize=16;entryX=0;entryY=0.457;entryDx=0;entryDy=0;entryPerimeter=0;" parent="1" target="zBp83v5MwMUTdgpoldUR-10" edge="1">
          <mxGeometry width="160" relative="1" as="geometry">
            <mxPoint x="470" y="509.5" as="sourcePoint" />
            <mxPoint x="601" y="440" as="targetPoint" />
          </mxGeometry>
        </mxCell>
        <mxCell id="zBp83v5MwMUTdgpoldUR-23" value="商家端" style="shape=umlActor;verticalLabelPosition=bottom;verticalAlign=top;html=1;sketch=1;hachureGap=4;jiggle=2;curveFitting=1;fontFamily=Architects Daughter;fontSource=https%3A%2F%2Ffonts.googleapis.com%2Fcss%3Ffamily%3DArchitects%2BDaughter;fontSize=20;fillColor=#f5f5f5;fontColor=#333333;strokeColor=#666666;" parent="1" vertex="1">
          <mxGeometry x="-730" y="1916" width="70" height="102" as="geometry" />
        </mxCell>
        <mxCell id="5fDDdlRVlFWuMGhj4j6F-64" style="edgeStyle=orthogonalEdgeStyle;rounded=0;sketch=1;hachureGap=4;jiggle=2;curveFitting=1;orthogonalLoop=1;jettySize=auto;html=1;fontFamily=Architects Daughter;fontSource=https%3A%2F%2Ffonts.googleapis.com%2Fcss%3Ffamily%3DArchitects%2BDaughter;fontSize=16;" parent="1" source="zBp83v5MwMUTdgpoldUR-24" target="5fDDdlRVlFWuMGhj4j6F-63" edge="1">
          <mxGeometry relative="1" as="geometry" />
        </mxCell>
        <mxCell id="zBp83v5MwMUTdgpoldUR-24" value="技术售后管理端" style="shape=umlActor;verticalLabelPosition=bottom;verticalAlign=top;html=1;sketch=1;hachureGap=4;jiggle=2;curveFitting=1;fontFamily=Architects Daughter;fontSource=https%3A%2F%2Ffonts.googleapis.com%2Fcss%3Ffamily%3DArchitects%2BDaughter;fontSize=20;fillColor=#f5f5f5;fontColor=#333333;strokeColor=#666666;" parent="1" vertex="1">
          <mxGeometry x="-90" y="890" width="30" height="60" as="geometry" />
        </mxCell>
        <mxCell id="zBp83v5MwMUTdgpoldUR-27" value="房间管理" style="ellipse;whiteSpace=wrap;html=1;sketch=1;hachureGap=4;jiggle=2;curveFitting=1;fontFamily=Architects Daughter;fontSource=https%3A%2F%2Ffonts.googleapis.com%2Fcss%3Ffamily%3DArchitects%2BDaughter;fontSize=20;fillColor=#fff2cc;strokeColor=#d6b656;" parent="1" vertex="1">
          <mxGeometry x="130" y="880" width="140" height="70" as="geometry" />
        </mxCell>
        <mxCell id="zBp83v5MwMUTdgpoldUR-28" value="门店管理" style="ellipse;whiteSpace=wrap;html=1;sketch=1;hachureGap=4;jiggle=2;curveFitting=1;fontFamily=Architects Daughter;fontSource=https%3A%2F%2Ffonts.googleapis.com%2Fcss%3Ffamily%3DArchitects%2BDaughter;fontSize=20;fillColor=#fff2cc;strokeColor=#d6b656;" parent="1" vertex="1">
          <mxGeometry x="130" y="760" width="140" height="70" as="geometry" />
        </mxCell>
        <mxCell id="zBp83v5MwMUTdgpoldUR-29" value="设备管理" style="ellipse;whiteSpace=wrap;html=1;sketch=1;hachureGap=4;jiggle=2;curveFitting=1;fontFamily=Architects Daughter;fontSource=https%3A%2F%2Ffonts.googleapis.com%2Fcss%3Ffamily%3DArchitects%2BDaughter;fontSize=20;fillColor=#fff2cc;strokeColor=#d6b656;" parent="1" vertex="1">
          <mxGeometry x="130" y="1060" width="140" height="70" as="geometry" />
        </mxCell>
        <mxCell id="zBp83v5MwMUTdgpoldUR-36" value="门店开通" style="ellipse;whiteSpace=wrap;html=1;sketch=1;hachureGap=4;jiggle=2;curveFitting=1;fontFamily=Architects Daughter;fontSource=https%3A%2F%2Ffonts.googleapis.com%2Fcss%3Ffamily%3DArchitects%2BDaughter;fontSize=20;fillColor=#f5f5f5;strokeColor=#666666;fontColor=#333333;" parent="1" vertex="1">
          <mxGeometry x="380" y="760" width="140" height="70" as="geometry" />
        </mxCell>
        <mxCell id="zBp83v5MwMUTdgpoldUR-40" value="添加房间" style="ellipse;whiteSpace=wrap;html=1;sketch=1;hachureGap=4;jiggle=2;curveFitting=1;fontFamily=Architects Daughter;fontSource=https%3A%2F%2Ffonts.googleapis.com%2Fcss%3Ffamily%3DArchitects%2BDaughter;fontSize=20;fillColor=#f5f5f5;strokeColor=#666666;fontColor=#333333;" parent="1" vertex="1">
          <mxGeometry x="380" y="880" width="140" height="70" as="geometry" />
        </mxCell>
        <mxCell id="zBp83v5MwMUTdgpoldUR-43" value="添加设备" style="ellipse;whiteSpace=wrap;html=1;sketch=1;hachureGap=4;jiggle=2;curveFitting=1;fontFamily=Architects Daughter;fontSource=https%3A%2F%2Ffonts.googleapis.com%2Fcss%3Ffamily%3DArchitects%2BDaughter;fontSize=20;fillColor=#f5f5f5;strokeColor=#666666;fontColor=#333333;" parent="1" vertex="1">
          <mxGeometry x="380" y="1000" width="140" height="70" as="geometry" />
        </mxCell>
        <mxCell id="zBp83v5MwMUTdgpoldUR-44" value="绑定房间" style="ellipse;whiteSpace=wrap;html=1;sketch=1;hachureGap=4;jiggle=2;curveFitting=1;fontFamily=Architects Daughter;fontSource=https%3A%2F%2Ffonts.googleapis.com%2Fcss%3Ffamily%3DArchitects%2BDaughter;fontSize=20;fillColor=#f5f5f5;strokeColor=#666666;fontColor=#333333;" parent="1" vertex="1">
          <mxGeometry x="380" y="1120" width="140" height="70" as="geometry" />
        </mxCell>
        <mxCell id="zBp83v5MwMUTdgpoldUR-45" value="" style="endArrow=open;endSize=12;dashed=1;html=1;rounded=0;sketch=1;hachureGap=4;jiggle=2;curveFitting=1;fontFamily=Architects Daughter;fontSource=https%3A%2F%2Ffonts.googleapis.com%2Fcss%3Ffamily%3DArchitects%2BDaughter;fontSize=16;entryX=-0.004;entryY=0.557;entryDx=0;entryDy=0;entryPerimeter=0;exitX=1.011;exitY=0.586;exitDx=0;exitDy=0;exitPerimeter=0;" parent="1" source="zBp83v5MwMUTdgpoldUR-28" target="zBp83v5MwMUTdgpoldUR-36" edge="1">
          <mxGeometry width="160" relative="1" as="geometry">
            <mxPoint x="270" y="797" as="sourcePoint" />
            <mxPoint x="402" y="903" as="targetPoint" />
          </mxGeometry>
        </mxCell>
        <mxCell id="zBp83v5MwMUTdgpoldUR-46" value="" style="endArrow=open;endSize=12;dashed=1;html=1;rounded=0;sketch=1;hachureGap=4;jiggle=2;curveFitting=1;fontFamily=Architects Daughter;fontSource=https%3A%2F%2Ffonts.googleapis.com%2Fcss%3Ffamily%3DArchitects%2BDaughter;fontSize=16;entryX=-0.018;entryY=0.557;entryDx=0;entryDy=0;entryPerimeter=0;exitX=1.004;exitY=0.529;exitDx=0;exitDy=0;exitPerimeter=0;" parent="1" source="zBp83v5MwMUTdgpoldUR-27" target="zBp83v5MwMUTdgpoldUR-40" edge="1">
          <mxGeometry width="160" relative="1" as="geometry">
            <mxPoint x="280" y="900" as="sourcePoint" />
            <mxPoint x="377" y="914" as="targetPoint" />
          </mxGeometry>
        </mxCell>
        <mxCell id="zBp83v5MwMUTdgpoldUR-47" value="" style="endArrow=open;endSize=12;dashed=1;html=1;rounded=0;sketch=1;hachureGap=4;jiggle=2;curveFitting=1;fontFamily=Architects Daughter;fontSource=https%3A%2F%2Ffonts.googleapis.com%2Fcss%3Ffamily%3DArchitects%2BDaughter;fontSize=16;entryX=-0.011;entryY=0.471;entryDx=0;entryDy=0;entryPerimeter=0;exitX=1.004;exitY=0.4;exitDx=0;exitDy=0;exitPerimeter=0;" parent="1" source="zBp83v5MwMUTdgpoldUR-29" target="zBp83v5MwMUTdgpoldUR-43" edge="1">
          <mxGeometry width="160" relative="1" as="geometry">
            <mxPoint x="281" y="927" as="sourcePoint" />
            <mxPoint x="387" y="929" as="targetPoint" />
          </mxGeometry>
        </mxCell>
        <mxCell id="zBp83v5MwMUTdgpoldUR-48" value="" style="endArrow=open;endSize=12;dashed=1;html=1;rounded=0;sketch=1;hachureGap=4;jiggle=2;curveFitting=1;fontFamily=Architects Daughter;fontSource=https%3A%2F%2Ffonts.googleapis.com%2Fcss%3Ffamily%3DArchitects%2BDaughter;fontSize=16;entryX=-0.018;entryY=0.471;entryDx=0;entryDy=0;entryPerimeter=0;" parent="1" source="zBp83v5MwMUTdgpoldUR-29" target="zBp83v5MwMUTdgpoldUR-44" edge="1">
          <mxGeometry width="160" relative="1" as="geometry">
            <mxPoint x="281" y="1098" as="sourcePoint" />
            <mxPoint x="388" y="1043" as="targetPoint" />
          </mxGeometry>
        </mxCell>
        <mxCell id="zBp83v5MwMUTdgpoldUR-49" style="rounded=0;sketch=1;hachureGap=4;jiggle=2;curveFitting=1;orthogonalLoop=1;jettySize=auto;html=1;entryX=-0.011;entryY=0.5;entryDx=0;entryDy=0;entryPerimeter=0;fontFamily=Architects Daughter;fontSource=https%3A%2F%2Ffonts.googleapis.com%2Fcss%3Ffamily%3DArchitects%2BDaughter;fontSize=16;" parent="1" source="zBp83v5MwMUTdgpoldUR-24" target="zBp83v5MwMUTdgpoldUR-28" edge="1">
          <mxGeometry relative="1" as="geometry" />
        </mxCell>
        <mxCell id="zBp83v5MwMUTdgpoldUR-50" style="rounded=0;sketch=1;hachureGap=4;jiggle=2;curveFitting=1;orthogonalLoop=1;jettySize=auto;html=1;entryX=0.004;entryY=0.514;entryDx=0;entryDy=0;entryPerimeter=0;fontFamily=Architects Daughter;fontSource=https%3A%2F%2Ffonts.googleapis.com%2Fcss%3Ffamily%3DArchitects%2BDaughter;fontSize=16;" parent="1" source="zBp83v5MwMUTdgpoldUR-24" target="zBp83v5MwMUTdgpoldUR-27" edge="1">
          <mxGeometry relative="1" as="geometry" />
        </mxCell>
        <mxCell id="zBp83v5MwMUTdgpoldUR-51" style="rounded=0;sketch=1;hachureGap=4;jiggle=2;curveFitting=1;orthogonalLoop=1;jettySize=auto;html=1;entryX=-0.004;entryY=0.514;entryDx=0;entryDy=0;entryPerimeter=0;fontFamily=Architects Daughter;fontSource=https%3A%2F%2Ffonts.googleapis.com%2Fcss%3Ffamily%3DArchitects%2BDaughter;fontSize=16;" parent="1" source="zBp83v5MwMUTdgpoldUR-24" target="zBp83v5MwMUTdgpoldUR-29" edge="1">
          <mxGeometry relative="1" as="geometry" />
        </mxCell>
        <mxCell id="zBp83v5MwMUTdgpoldUR-55" value="房间管理" style="ellipse;whiteSpace=wrap;html=1;sketch=1;hachureGap=4;jiggle=2;curveFitting=1;fontFamily=Architects Daughter;fontSource=https%3A%2F%2Ffonts.googleapis.com%2Fcss%3Ffamily%3DArchitects%2BDaughter;fontSize=20;fillColor=#fff2cc;strokeColor=#d6b656;" parent="1" vertex="1">
          <mxGeometry x="190" y="2190" width="140" height="70" as="geometry" />
        </mxCell>
        <mxCell id="zBp83v5MwMUTdgpoldUR-56" value="门店管理" style="ellipse;whiteSpace=wrap;html=1;sketch=1;hachureGap=4;jiggle=2;curveFitting=1;fontFamily=Architects Daughter;fontSource=https%3A%2F%2Ffonts.googleapis.com%2Fcss%3Ffamily%3DArchitects%2BDaughter;fontSize=20;fillColor=#fff2cc;strokeColor=#d6b656;" parent="1" vertex="1">
          <mxGeometry x="270" y="1795" width="140" height="70" as="geometry" />
        </mxCell>
        <mxCell id="zBp83v5MwMUTdgpoldUR-58" value="设置门店信息" style="ellipse;whiteSpace=wrap;html=1;sketch=1;hachureGap=4;jiggle=2;curveFitting=1;fontFamily=Architects Daughter;fontSource=https%3A%2F%2Ffonts.googleapis.com%2Fcss%3Ffamily%3DArchitects%2BDaughter;fontSize=20;fillColor=#f5f5f5;strokeColor=#666666;fontColor=#333333;" parent="1" vertex="1">
          <mxGeometry x="530" y="1790" width="140" height="70" as="geometry" />
        </mxCell>
        <mxCell id="zBp83v5MwMUTdgpoldUR-59" value="门店续费" style="ellipse;whiteSpace=wrap;html=1;sketch=1;hachureGap=4;jiggle=2;curveFitting=1;fontFamily=Architects Daughter;fontSource=https%3A%2F%2Ffonts.googleapis.com%2Fcss%3Ffamily%3DArchitects%2BDaughter;fontSize=20;fillColor=#f5f5f5;strokeColor=#666666;fontColor=#333333;" parent="1" vertex="1">
          <mxGeometry x="530" y="1910" width="140" height="70" as="geometry" />
        </mxCell>
        <mxCell id="zBp83v5MwMUTdgpoldUR-60" value="添加房间" style="ellipse;whiteSpace=wrap;html=1;sketch=1;hachureGap=4;jiggle=2;curveFitting=1;fontFamily=Architects Daughter;fontSource=https%3A%2F%2Ffonts.googleapis.com%2Fcss%3Ffamily%3DArchitects%2BDaughter;fontSize=20;fillColor=#f5f5f5;strokeColor=#666666;fontColor=#333333;" parent="1" vertex="1">
          <mxGeometry x="130" y="2330" width="140" height="70" as="geometry" />
        </mxCell>
        <mxCell id="zBp83v5MwMUTdgpoldUR-61" value="删除房间" style="ellipse;whiteSpace=wrap;html=1;sketch=1;hachureGap=4;jiggle=2;curveFitting=1;fontFamily=Architects Daughter;fontSource=https%3A%2F%2Ffonts.googleapis.com%2Fcss%3Ffamily%3DArchitects%2BDaughter;fontSize=20;fillColor=#f5f5f5;strokeColor=#666666;fontColor=#333333;" parent="1" vertex="1">
          <mxGeometry x="500" y="2330" width="140" height="70" as="geometry" />
        </mxCell>
        <mxCell id="zBp83v5MwMUTdgpoldUR-62" value="设置房间信息" style="ellipse;whiteSpace=wrap;html=1;sketch=1;hachureGap=4;jiggle=2;curveFitting=1;fontFamily=Architects Daughter;fontSource=https%3A%2F%2Ffonts.googleapis.com%2Fcss%3Ffamily%3DArchitects%2BDaughter;fontSize=20;fillColor=#f5f5f5;strokeColor=#666666;fontColor=#333333;" parent="1" vertex="1">
          <mxGeometry x="320" y="2330" width="140" height="70" as="geometry" />
        </mxCell>
        <mxCell id="zBp83v5MwMUTdgpoldUR-63" value="营业数据" style="ellipse;whiteSpace=wrap;html=1;sketch=1;hachureGap=4;jiggle=2;curveFitting=1;fontFamily=Architects Daughter;fontSource=https%3A%2F%2Ffonts.googleapis.com%2Fcss%3Ffamily%3DArchitects%2BDaughter;fontSize=20;fillColor=#fff2cc;strokeColor=#d6b656;" parent="1" vertex="1">
          <mxGeometry x="-200" y="1862" width="140" height="70" as="geometry" />
        </mxCell>
        <mxCell id="zBp83v5MwMUTdgpoldUR-64" value="选择门店" style="ellipse;whiteSpace=wrap;html=1;sketch=1;hachureGap=4;jiggle=2;curveFitting=1;fontFamily=Architects Daughter;fontSource=https%3A%2F%2Ffonts.googleapis.com%2Fcss%3Ffamily%3DArchitects%2BDaughter;fontSize=20;fillColor=#f8cecc;strokeColor=#b85450;" parent="1" vertex="1">
          <mxGeometry x="-180" y="353" width="140" height="70" as="geometry" />
        </mxCell>
        <mxCell id="zBp83v5MwMUTdgpoldUR-66" value="设备管理" style="ellipse;whiteSpace=wrap;html=1;sketch=1;hachureGap=4;jiggle=2;curveFitting=1;fontFamily=Architects Daughter;fontSource=https%3A%2F%2Ffonts.googleapis.com%2Fcss%3Ffamily%3DArchitects%2BDaughter;fontSize=20;fillColor=#fff2cc;strokeColor=#d6b656;" parent="1" vertex="1">
          <mxGeometry x="-130" y="2170" width="140" height="70" as="geometry" />
        </mxCell>
        <mxCell id="zBp83v5MwMUTdgpoldUR-67" value="添加设备" style="ellipse;whiteSpace=wrap;html=1;sketch=1;hachureGap=4;jiggle=2;curveFitting=1;fontFamily=Architects Daughter;fontSource=https%3A%2F%2Ffonts.googleapis.com%2Fcss%3Ffamily%3DArchitects%2BDaughter;fontSize=20;fillColor=#f5f5f5;strokeColor=#666666;fontColor=#333333;" parent="1" vertex="1">
          <mxGeometry x="-80" y="2335" width="140" height="70" as="geometry" />
        </mxCell>
        <mxCell id="zBp83v5MwMUTdgpoldUR-68" value="绑定房间" style="ellipse;whiteSpace=wrap;html=1;sketch=1;hachureGap=4;jiggle=2;curveFitting=1;fontFamily=Architects Daughter;fontSource=https%3A%2F%2Ffonts.googleapis.com%2Fcss%3Ffamily%3DArchitects%2BDaughter;fontSize=20;fillColor=#f5f5f5;strokeColor=#666666;fontColor=#333333;" parent="1" vertex="1">
          <mxGeometry x="-440" y="2335" width="140" height="70" as="geometry" />
        </mxCell>
        <mxCell id="zBp83v5MwMUTdgpoldUR-69" value="" style="endArrow=open;endSize=12;dashed=1;html=1;rounded=0;sketch=1;hachureGap=4;jiggle=2;curveFitting=1;fontFamily=Architects Daughter;fontSource=https%3A%2F%2Ffonts.googleapis.com%2Fcss%3Ffamily%3DArchitects%2BDaughter;fontSize=16;exitX=0.468;exitY=1.021;exitDx=0;exitDy=0;exitPerimeter=0;" parent="1" source="zBp83v5MwMUTdgpoldUR-66" target="zBp83v5MwMUTdgpoldUR-67" edge="1">
          <mxGeometry width="160" relative="1" as="geometry">
            <mxPoint x="571" y="2389" as="sourcePoint" />
            <mxPoint x="677" y="2391" as="targetPoint" />
          </mxGeometry>
        </mxCell>
        <mxCell id="zBp83v5MwMUTdgpoldUR-70" value="" style="endArrow=open;endSize=12;dashed=1;html=1;rounded=0;sketch=1;hachureGap=4;jiggle=2;curveFitting=1;fontFamily=Architects Daughter;fontSource=https%3A%2F%2Ffonts.googleapis.com%2Fcss%3Ffamily%3DArchitects%2BDaughter;fontSize=16;entryX=0.496;entryY=-0.079;entryDx=0;entryDy=0;entryPerimeter=0;exitX=0.439;exitY=1.05;exitDx=0;exitDy=0;exitPerimeter=0;" parent="1" source="zBp83v5MwMUTdgpoldUR-66" target="zBp83v5MwMUTdgpoldUR-68" edge="1">
          <mxGeometry width="160" relative="1" as="geometry">
            <mxPoint x="398.03999999999996" y="2414.0299999999997" as="sourcePoint" />
            <mxPoint x="250.00000000000003" y="2512" as="targetPoint" />
          </mxGeometry>
        </mxCell>
        <mxCell id="zBp83v5MwMUTdgpoldUR-72" value="进店提示&lt;br&gt;基本信息&lt;br&gt;标签&lt;br&gt;时段费用配置" style="text;html=1;align=center;verticalAlign=middle;resizable=0;points=[];autosize=1;strokeColor=none;fillColor=none;fontSize=20;fontFamily=Architects Daughter;" parent="1" vertex="1">
          <mxGeometry x="760" y="2212" width="140" height="110" as="geometry" />
        </mxCell>
        <mxCell id="zBp83v5MwMUTdgpoldUR-73" value="订单管理" style="ellipse;whiteSpace=wrap;html=1;sketch=1;hachureGap=4;jiggle=2;curveFitting=1;fontFamily=Architects Daughter;fontSource=https%3A%2F%2Ffonts.googleapis.com%2Fcss%3Ffamily%3DArchitects%2BDaughter;fontSize=20;fillColor=#fff2cc;strokeColor=#d6b656;" parent="1" vertex="1">
          <mxGeometry x="-220" y="2026" width="140" height="70" as="geometry" />
        </mxCell>
        <mxCell id="zBp83v5MwMUTdgpoldUR-75" value="添加门店" style="ellipse;whiteSpace=wrap;html=1;sketch=1;hachureGap=4;jiggle=2;curveFitting=1;fontFamily=Architects Daughter;fontSource=https%3A%2F%2Ffonts.googleapis.com%2Fcss%3Ffamily%3DArchitects%2BDaughter;fontSize=20;fillColor=#f8cecc;strokeColor=#b85450;" parent="1" vertex="1">
          <mxGeometry x="530" y="1670" width="140" height="70" as="geometry" />
        </mxCell>
        <mxCell id="zBp83v5MwMUTdgpoldUR-79" value="门店营业数据" style="ellipse;whiteSpace=wrap;html=1;sketch=1;hachureGap=4;jiggle=2;curveFitting=1;fontFamily=Architects Daughter;fontSource=https%3A%2F%2Ffonts.googleapis.com%2Fcss%3Ffamily%3DArchitects%2BDaughter;fontSize=20;fillColor=#dae8fc;strokeColor=#6c8ebf;" parent="1" vertex="1">
          <mxGeometry x="-480" y="1802" width="140" height="70" as="geometry" />
        </mxCell>
        <mxCell id="5fDDdlRVlFWuMGhj4j6F-1" value="营业报表" style="ellipse;whiteSpace=wrap;html=1;sketch=1;hachureGap=4;jiggle=2;curveFitting=1;fontFamily=Architects Daughter;fontSource=https%3A%2F%2Ffonts.googleapis.com%2Fcss%3Ffamily%3DArchitects%2BDaughter;fontSize=20;fillColor=#dae8fc;strokeColor=#6c8ebf;" parent="1" vertex="1">
          <mxGeometry x="-480" y="1932" width="140" height="70" as="geometry" />
        </mxCell>
        <mxCell id="5fDDdlRVlFWuMGhj4j6F-3" value="房间控制" style="ellipse;whiteSpace=wrap;html=1;sketch=1;hachureGap=4;jiggle=2;curveFitting=1;fontFamily=Architects Daughter;fontSource=https%3A%2F%2Ffonts.googleapis.com%2Fcss%3Ffamily%3DArchitects%2BDaughter;fontSize=20;fillColor=#f8cecc;strokeColor=#b85450;" parent="1" vertex="1">
          <mxGeometry x="-483" y="2070" width="140" height="70" as="geometry" />
        </mxCell>
        <mxCell id="5fDDdlRVlFWuMGhj4j6F-4" value="商家管理端" style="shape=umlActor;verticalLabelPosition=bottom;verticalAlign=top;html=1;sketch=1;hachureGap=4;jiggle=2;curveFitting=1;fontFamily=Architects Daughter;fontSource=https%3A%2F%2Ffonts.googleapis.com%2Fcss%3Ffamily%3DArchitects%2BDaughter;fontSize=20;fillColor=#f5f5f5;fontColor=#333333;strokeColor=#666666;" parent="1" vertex="1">
          <mxGeometry x="130" y="2010" width="60" height="102" as="geometry" />
        </mxCell>
        <mxCell id="5fDDdlRVlFWuMGhj4j6F-5" style="rounded=0;sketch=1;hachureGap=4;jiggle=2;curveFitting=1;orthogonalLoop=1;jettySize=auto;html=1;entryX=0;entryY=0.514;entryDx=0;entryDy=0;entryPerimeter=0;fontFamily=Architects Daughter;fontSource=https%3A%2F%2Ffonts.googleapis.com%2Fcss%3Ffamily%3DArchitects%2BDaughter;fontSize=16;" parent="1" source="zBp83v5MwMUTdgpoldUR-23" target="zBp83v5MwMUTdgpoldUR-79" edge="1">
          <mxGeometry relative="1" as="geometry" />
        </mxCell>
        <mxCell id="5fDDdlRVlFWuMGhj4j6F-6" style="rounded=0;sketch=1;hachureGap=4;jiggle=2;curveFitting=1;orthogonalLoop=1;jettySize=auto;html=1;entryX=-0.029;entryY=0.543;entryDx=0;entryDy=0;entryPerimeter=0;fontFamily=Architects Daughter;fontSource=https%3A%2F%2Ffonts.googleapis.com%2Fcss%3Ffamily%3DArchitects%2BDaughter;fontSize=16;" parent="1" source="zBp83v5MwMUTdgpoldUR-23" target="5fDDdlRVlFWuMGhj4j6F-1" edge="1">
          <mxGeometry relative="1" as="geometry" />
        </mxCell>
        <mxCell id="5fDDdlRVlFWuMGhj4j6F-7" style="rounded=0;sketch=1;hachureGap=4;jiggle=2;curveFitting=1;orthogonalLoop=1;jettySize=auto;html=1;entryX=0;entryY=0.571;entryDx=0;entryDy=0;entryPerimeter=0;fontFamily=Architects Daughter;fontSource=https%3A%2F%2Ffonts.googleapis.com%2Fcss%3Ffamily%3DArchitects%2BDaughter;fontSize=16;" parent="1" source="zBp83v5MwMUTdgpoldUR-23" target="5fDDdlRVlFWuMGhj4j6F-3" edge="1">
          <mxGeometry relative="1" as="geometry" />
        </mxCell>
        <mxCell id="5fDDdlRVlFWuMGhj4j6F-10" value="" style="endArrow=open;endSize=12;dashed=1;html=1;rounded=0;sketch=1;hachureGap=4;jiggle=2;curveFitting=1;fontFamily=Architects Daughter;fontSource=https%3A%2F%2Ffonts.googleapis.com%2Fcss%3Ffamily%3DArchitects%2BDaughter;fontSize=16;entryX=1.014;entryY=0.45;entryDx=0;entryDy=0;entryPerimeter=0;exitX=-0.021;exitY=0.479;exitDx=0;exitDy=0;exitPerimeter=0;" parent="1" source="zBp83v5MwMUTdgpoldUR-63" target="zBp83v5MwMUTdgpoldUR-79" edge="1">
          <mxGeometry width="160" relative="1" as="geometry">
            <mxPoint x="-298" y="1763" as="sourcePoint" />
            <mxPoint x="-180" y="1802" as="targetPoint" />
          </mxGeometry>
        </mxCell>
        <mxCell id="5fDDdlRVlFWuMGhj4j6F-11" value="" style="endArrow=open;endSize=12;dashed=1;html=1;rounded=0;sketch=1;hachureGap=4;jiggle=2;curveFitting=1;fontFamily=Architects Daughter;fontSource=https%3A%2F%2Ffonts.googleapis.com%2Fcss%3Ffamily%3DArchitects%2BDaughter;fontSize=16;entryX=1;entryY=0.507;entryDx=0;entryDy=0;entryPerimeter=0;exitX=-0.021;exitY=0.564;exitDx=0;exitDy=0;exitPerimeter=0;" parent="1" source="zBp83v5MwMUTdgpoldUR-63" target="5fDDdlRVlFWuMGhj4j6F-1" edge="1">
          <mxGeometry width="160" relative="1" as="geometry">
            <mxPoint x="-193" y="1906" as="sourcePoint" />
            <mxPoint x="-328" y="1844" as="targetPoint" />
          </mxGeometry>
        </mxCell>
        <mxCell id="5fDDdlRVlFWuMGhj4j6F-12" style="rounded=0;sketch=1;hachureGap=4;jiggle=2;curveFitting=1;orthogonalLoop=1;jettySize=auto;html=1;entryX=1.025;entryY=0.5;entryDx=0;entryDy=0;entryPerimeter=0;fontFamily=Architects Daughter;fontSource=https%3A%2F%2Ffonts.googleapis.com%2Fcss%3Ffamily%3DArchitects%2BDaughter;fontSize=16;" parent="1" source="5fDDdlRVlFWuMGhj4j6F-4" target="zBp83v5MwMUTdgpoldUR-63" edge="1">
          <mxGeometry relative="1" as="geometry" />
        </mxCell>
        <mxCell id="5fDDdlRVlFWuMGhj4j6F-13" style="rounded=0;sketch=1;hachureGap=4;jiggle=2;curveFitting=1;orthogonalLoop=1;jettySize=auto;html=1;entryX=0.996;entryY=0.471;entryDx=0;entryDy=0;entryPerimeter=0;fontFamily=Architects Daughter;fontSource=https%3A%2F%2Ffonts.googleapis.com%2Fcss%3Ffamily%3DArchitects%2BDaughter;fontSize=16;" parent="1" source="5fDDdlRVlFWuMGhj4j6F-4" target="zBp83v5MwMUTdgpoldUR-73" edge="1">
          <mxGeometry relative="1" as="geometry" />
        </mxCell>
        <mxCell id="5fDDdlRVlFWuMGhj4j6F-15" style="rounded=0;sketch=1;hachureGap=4;jiggle=2;curveFitting=1;orthogonalLoop=1;jettySize=auto;html=1;entryX=0.004;entryY=0.479;entryDx=0;entryDy=0;entryPerimeter=0;fontFamily=Architects Daughter;fontSource=https%3A%2F%2Ffonts.googleapis.com%2Fcss%3Ffamily%3DArchitects%2BDaughter;fontSize=16;" parent="1" source="5fDDdlRVlFWuMGhj4j6F-4" target="zBp83v5MwMUTdgpoldUR-56" edge="1">
          <mxGeometry relative="1" as="geometry" />
        </mxCell>
        <mxCell id="5fDDdlRVlFWuMGhj4j6F-16" style="rounded=0;sketch=1;hachureGap=4;jiggle=2;curveFitting=1;orthogonalLoop=1;jettySize=auto;html=1;entryX=0.41;entryY=0.019;entryDx=0;entryDy=0;entryPerimeter=0;fontFamily=Architects Daughter;fontSource=https%3A%2F%2Ffonts.googleapis.com%2Fcss%3Ffamily%3DArchitects%2BDaughter;fontSize=16;" parent="1" source="5fDDdlRVlFWuMGhj4j6F-4" target="zBp83v5MwMUTdgpoldUR-55" edge="1">
          <mxGeometry relative="1" as="geometry" />
        </mxCell>
        <mxCell id="5fDDdlRVlFWuMGhj4j6F-17" style="rounded=0;sketch=1;hachureGap=4;jiggle=2;curveFitting=1;orthogonalLoop=1;jettySize=auto;html=1;entryX=0.407;entryY=-0.036;entryDx=0;entryDy=0;entryPerimeter=0;fontFamily=Architects Daughter;fontSource=https%3A%2F%2Ffonts.googleapis.com%2Fcss%3Ffamily%3DArchitects%2BDaughter;fontSize=16;" parent="1" source="5fDDdlRVlFWuMGhj4j6F-4" target="zBp83v5MwMUTdgpoldUR-66" edge="1">
          <mxGeometry relative="1" as="geometry" />
        </mxCell>
        <mxCell id="5fDDdlRVlFWuMGhj4j6F-18" value="" style="endArrow=open;endSize=12;dashed=1;html=1;rounded=0;sketch=1;hachureGap=4;jiggle=2;curveFitting=1;fontFamily=Architects Daughter;fontSource=https%3A%2F%2Ffonts.googleapis.com%2Fcss%3Ffamily%3DArchitects%2BDaughter;fontSize=16;entryX=0.004;entryY=0.536;entryDx=0;entryDy=0;entryPerimeter=0;exitX=1.018;exitY=0.35;exitDx=0;exitDy=0;exitPerimeter=0;" parent="1" source="zBp83v5MwMUTdgpoldUR-56" target="zBp83v5MwMUTdgpoldUR-75" edge="1">
          <mxGeometry width="160" relative="1" as="geometry">
            <mxPoint x="460" y="1772" as="sourcePoint" />
            <mxPoint x="578" y="1811" as="targetPoint" />
          </mxGeometry>
        </mxCell>
        <mxCell id="5fDDdlRVlFWuMGhj4j6F-19" value="" style="endArrow=open;endSize=12;dashed=1;html=1;rounded=0;sketch=1;hachureGap=4;jiggle=2;curveFitting=1;fontFamily=Architects Daughter;fontSource=https%3A%2F%2Ffonts.googleapis.com%2Fcss%3Ffamily%3DArchitects%2BDaughter;fontSize=16;entryX=0.018;entryY=0.521;entryDx=0;entryDy=0;entryPerimeter=0;exitX=0.996;exitY=0.436;exitDx=0;exitDy=0;exitPerimeter=0;" parent="1" source="zBp83v5MwMUTdgpoldUR-56" target="zBp83v5MwMUTdgpoldUR-58" edge="1">
          <mxGeometry width="160" relative="1" as="geometry">
            <mxPoint x="483" y="1897" as="sourcePoint" />
            <mxPoint x="591" y="1770" as="targetPoint" />
          </mxGeometry>
        </mxCell>
        <mxCell id="5fDDdlRVlFWuMGhj4j6F-20" value="" style="endArrow=open;endSize=12;dashed=1;html=1;rounded=0;sketch=1;hachureGap=4;jiggle=2;curveFitting=1;fontFamily=Architects Daughter;fontSource=https%3A%2F%2Ffonts.googleapis.com%2Fcss%3Ffamily%3DArchitects%2BDaughter;fontSize=16;entryX=-0.025;entryY=0.45;entryDx=0;entryDy=0;entryPerimeter=0;exitX=1.011;exitY=0.536;exitDx=0;exitDy=0;exitPerimeter=0;" parent="1" source="zBp83v5MwMUTdgpoldUR-56" target="zBp83v5MwMUTdgpoldUR-59" edge="1">
          <mxGeometry width="160" relative="1" as="geometry">
            <mxPoint x="479" y="1903" as="sourcePoint" />
            <mxPoint x="593" y="1888" as="targetPoint" />
          </mxGeometry>
        </mxCell>
        <mxCell id="5fDDdlRVlFWuMGhj4j6F-21" value="" style="endArrow=open;endSize=12;dashed=1;html=1;rounded=0;sketch=1;hachureGap=4;jiggle=2;curveFitting=1;fontFamily=Architects Daughter;fontSource=https%3A%2F%2Ffonts.googleapis.com%2Fcss%3Ffamily%3DArchitects%2BDaughter;fontSize=16;entryX=0.49;entryY=-0.029;entryDx=0;entryDy=0;entryPerimeter=0;exitX=0.357;exitY=1;exitDx=0;exitDy=0;exitPerimeter=0;" parent="1" source="zBp83v5MwMUTdgpoldUR-55" target="zBp83v5MwMUTdgpoldUR-60" edge="1">
          <mxGeometry width="160" relative="1" as="geometry">
            <mxPoint x="482" y="1910" as="sourcePoint" />
            <mxPoint x="587" y="2014" as="targetPoint" />
          </mxGeometry>
        </mxCell>
        <mxCell id="5fDDdlRVlFWuMGhj4j6F-22" value="" style="endArrow=open;endSize=12;dashed=1;html=1;rounded=0;sketch=1;hachureGap=4;jiggle=2;curveFitting=1;fontFamily=Architects Daughter;fontSource=https%3A%2F%2Ffonts.googleapis.com%2Fcss%3Ffamily%3DArchitects%2BDaughter;fontSize=16;exitX=0.548;exitY=1.019;exitDx=0;exitDy=0;exitPerimeter=0;" parent="1" source="zBp83v5MwMUTdgpoldUR-55" target="zBp83v5MwMUTdgpoldUR-62" edge="1">
          <mxGeometry width="160" relative="1" as="geometry">
            <mxPoint x="482" y="2158" as="sourcePoint" />
            <mxPoint x="319" y="2367" as="targetPoint" />
          </mxGeometry>
        </mxCell>
        <mxCell id="5fDDdlRVlFWuMGhj4j6F-25" value="系统管理员" style="shape=umlActor;verticalLabelPosition=bottom;verticalAlign=top;html=1;sketch=1;hachureGap=4;jiggle=2;curveFitting=1;fontFamily=Architects Daughter;fontSource=https%3A%2F%2Ffonts.googleapis.com%2Fcss%3Ffamily%3DArchitects%2BDaughter;fontSize=20;fillColor=#f5f5f5;fontColor=#333333;strokeColor=#666666;" parent="1" vertex="1">
          <mxGeometry x="-300" y="2968" width="50" height="90" as="geometry" />
        </mxCell>
        <mxCell id="5fDDdlRVlFWuMGhj4j6F-30" value="独立品牌自行添加门店" style="text;html=1;align=center;verticalAlign=middle;resizable=0;points=[];autosize=1;strokeColor=none;fillColor=none;fontSize=20;fontFamily=Architects Daughter;" parent="1" vertex="1">
          <mxGeometry x="810" y="1737" width="220" height="40" as="geometry" />
        </mxCell>
        <mxCell id="5fDDdlRVlFWuMGhj4j6F-31" value="添加一个门店&lt;br&gt;绑定品牌-&amp;gt;&lt;br&gt;设置门店信息" style="text;html=1;align=center;verticalAlign=middle;resizable=0;points=[];autosize=1;strokeColor=none;fillColor=none;fontSize=20;fontFamily=Architects Daughter;" parent="1" vertex="1">
          <mxGeometry x="810" y="735" width="140" height="90" as="geometry" />
        </mxCell>
        <mxCell id="5fDDdlRVlFWuMGhj4j6F-32" value="小程序（Openid）=品牌（授权码）" style="rounded=0;whiteSpace=wrap;html=1;sketch=1;hachureGap=4;jiggle=2;curveFitting=1;fontFamily=Architects Daughter;fontSource=https%3A%2F%2Ffonts.googleapis.com%2Fcss%3Ffamily%3DArchitects%2BDaughter;fontSize=20;" parent="1" vertex="1">
          <mxGeometry x="1340" y="680" width="340" height="60" as="geometry" />
        </mxCell>
        <mxCell id="5fDDdlRVlFWuMGhj4j6F-36" value="信息配置&lt;br&gt;轮播图&lt;br&gt;菜单配置&lt;br&gt;样式配置&lt;br&gt;文案配置" style="text;html=1;align=center;verticalAlign=middle;resizable=0;points=[];autosize=1;strokeColor=none;fillColor=none;fontSize=20;fontFamily=Architects Daughter;" parent="1" vertex="1">
          <mxGeometry x="780" y="1800" width="100" height="130" as="geometry" />
        </mxCell>
        <mxCell id="5fDDdlRVlFWuMGhj4j6F-37" value="预约方式：按天、小时、时段" style="text;html=1;align=center;verticalAlign=middle;resizable=0;points=[];autosize=1;strokeColor=none;fillColor=none;fontSize=20;fontFamily=Architects Daughter;" parent="1" vertex="1">
          <mxGeometry x="990" y="1900" width="280" height="40" as="geometry" />
        </mxCell>
        <mxCell id="5fDDdlRVlFWuMGhj4j6F-38" value="支付方式：&lt;br&gt;微信&lt;br&gt;余额&lt;br&gt;积分&lt;br&gt;储值卡&lt;br&gt;卡劵&lt;br&gt;优惠卷&lt;br&gt;线下" style="text;html=1;align=center;verticalAlign=middle;resizable=0;points=[];autosize=1;strokeColor=none;fillColor=none;fontSize=20;fontFamily=Architects Daughter;" parent="1" vertex="1">
          <mxGeometry x="1210" y="1955" width="120" height="210" as="geometry" />
        </mxCell>
        <mxCell id="5fDDdlRVlFWuMGhj4j6F-39" value="计费设置&lt;br&gt;小时&lt;br&gt;时段&lt;br&gt;房间&lt;br&gt;周末&lt;br&gt;会员" style="text;html=1;align=center;verticalAlign=middle;resizable=0;points=[];autosize=1;strokeColor=none;fillColor=none;fontSize=20;fontFamily=Architects Daughter;" parent="1" vertex="1">
          <mxGeometry x="910" y="1970" width="100" height="160" as="geometry" />
        </mxCell>
        <mxCell id="5fDDdlRVlFWuMGhj4j6F-42" value="品牌管理" style="ellipse;whiteSpace=wrap;html=1;sketch=1;hachureGap=4;jiggle=2;curveFitting=1;fontFamily=Architects Daughter;fontSource=https%3A%2F%2Ffonts.googleapis.com%2Fcss%3Ffamily%3DArchitects%2BDaughter;fontSize=20;fillColor=#fff2cc;strokeColor=#d6b656;" parent="1" vertex="1">
          <mxGeometry x="70" y="1777" width="140" height="70" as="geometry" />
        </mxCell>
        <mxCell id="5fDDdlRVlFWuMGhj4j6F-43" value="门店功能配置&lt;br&gt;加盟流水&lt;br&gt;分账" style="text;html=1;align=center;verticalAlign=middle;resizable=0;points=[];autosize=1;strokeColor=none;fillColor=none;fontSize=20;fontFamily=Architects Daughter;" parent="1" vertex="1">
          <mxGeometry x="700" y="1530" width="140" height="90" as="geometry" />
        </mxCell>
        <mxCell id="5fDDdlRVlFWuMGhj4j6F-46" style="rounded=0;sketch=1;hachureGap=4;jiggle=2;curveFitting=1;orthogonalLoop=1;jettySize=auto;html=1;entryX=0.492;entryY=1.048;entryDx=0;entryDy=0;entryPerimeter=0;fontFamily=Architects Daughter;fontSource=https%3A%2F%2Ffonts.googleapis.com%2Fcss%3Ffamily%3DArchitects%2BDaughter;fontSize=16;" parent="1" source="5fDDdlRVlFWuMGhj4j6F-4" target="5fDDdlRVlFWuMGhj4j6F-42" edge="1">
          <mxGeometry relative="1" as="geometry" />
        </mxCell>
        <mxCell id="5fDDdlRVlFWuMGhj4j6F-48" value="售前" style="shape=umlActor;verticalLabelPosition=bottom;verticalAlign=top;html=1;sketch=1;hachureGap=4;jiggle=2;curveFitting=1;fontFamily=Architects Daughter;fontSource=https%3A%2F%2Ffonts.googleapis.com%2Fcss%3Ffamily%3DArchitects%2BDaughter;fontSize=20;fillColor=#f5f5f5;fontColor=#333333;strokeColor=#666666;" parent="1" vertex="1">
          <mxGeometry x="-1050" y="870" width="30" height="60" as="geometry" />
        </mxCell>
        <mxCell id="5fDDdlRVlFWuMGhj4j6F-50" value="商家管理" style="ellipse;whiteSpace=wrap;html=1;sketch=1;hachureGap=4;jiggle=2;curveFitting=1;fontFamily=Architects Daughter;fontSource=https%3A%2F%2Ffonts.googleapis.com%2Fcss%3Ffamily%3DArchitects%2BDaughter;fontSize=20;fillColor=#fff2cc;strokeColor=#d6b656;" parent="1" vertex="1">
          <mxGeometry x="-840" y="865" width="140" height="70" as="geometry" />
        </mxCell>
        <mxCell id="5fDDdlRVlFWuMGhj4j6F-52" value="商家入驻" style="ellipse;whiteSpace=wrap;html=1;sketch=1;hachureGap=4;jiggle=2;curveFitting=1;fontFamily=Architects Daughter;fontSource=https%3A%2F%2Ffonts.googleapis.com%2Fcss%3Ffamily%3DArchitects%2BDaughter;fontSize=20;fillColor=#f5f5f5;strokeColor=#666666;fontColor=#333333;" parent="1" vertex="1">
          <mxGeometry x="-590" y="865" width="140" height="70" as="geometry" />
        </mxCell>
        <mxCell id="5fDDdlRVlFWuMGhj4j6F-56" value="" style="endArrow=open;endSize=12;dashed=1;html=1;rounded=0;sketch=1;hachureGap=4;jiggle=2;curveFitting=1;fontFamily=Architects Daughter;fontSource=https%3A%2F%2Ffonts.googleapis.com%2Fcss%3Ffamily%3DArchitects%2BDaughter;fontSize=16;entryX=-0.004;entryY=0.557;entryDx=0;entryDy=0;entryPerimeter=0;exitX=1.011;exitY=0.586;exitDx=0;exitDy=0;exitPerimeter=0;" parent="1" source="5fDDdlRVlFWuMGhj4j6F-50" target="5fDDdlRVlFWuMGhj4j6F-52" edge="1">
          <mxGeometry width="160" relative="1" as="geometry">
            <mxPoint x="-700" y="902" as="sourcePoint" />
            <mxPoint x="-568" y="1008" as="targetPoint" />
          </mxGeometry>
        </mxCell>
        <mxCell id="5fDDdlRVlFWuMGhj4j6F-60" style="rounded=0;sketch=1;hachureGap=4;jiggle=2;curveFitting=1;orthogonalLoop=1;jettySize=auto;html=1;entryX=-0.011;entryY=0.5;entryDx=0;entryDy=0;entryPerimeter=0;fontFamily=Architects Daughter;fontSource=https%3A%2F%2Ffonts.googleapis.com%2Fcss%3Ffamily%3DArchitects%2BDaughter;fontSize=16;" parent="1" source="5fDDdlRVlFWuMGhj4j6F-48" target="5fDDdlRVlFWuMGhj4j6F-50" edge="1">
          <mxGeometry relative="1" as="geometry" />
        </mxCell>
        <mxCell id="5fDDdlRVlFWuMGhj4j6F-63" value="品牌管理" style="ellipse;whiteSpace=wrap;html=1;sketch=1;hachureGap=4;jiggle=2;curveFitting=1;fontFamily=Architects Daughter;fontSource=https%3A%2F%2Ffonts.googleapis.com%2Fcss%3Ffamily%3DArchitects%2BDaughter;fontSize=20;fillColor=#fff2cc;strokeColor=#d6b656;" parent="1" vertex="1">
          <mxGeometry x="-145" y="680" width="140" height="70" as="geometry" />
        </mxCell>
        <mxCell id="5fDDdlRVlFWuMGhj4j6F-65" value="品牌添加" style="ellipse;whiteSpace=wrap;html=1;sketch=1;hachureGap=4;jiggle=2;curveFitting=1;fontFamily=Architects Daughter;fontSource=https%3A%2F%2Ffonts.googleapis.com%2Fcss%3Ffamily%3DArchitects%2BDaughter;fontSize=20;fillColor=#f5f5f5;strokeColor=#666666;fontColor=#333333;" parent="1" vertex="1">
          <mxGeometry x="10" y="600" width="140" height="70" as="geometry" />
        </mxCell>
        <mxCell id="5fDDdlRVlFWuMGhj4j6F-67" value="" style="endArrow=open;endSize=12;dashed=1;html=1;rounded=0;sketch=1;hachureGap=4;jiggle=2;curveFitting=1;fontFamily=Architects Daughter;fontSource=https%3A%2F%2Ffonts.googleapis.com%2Fcss%3Ffamily%3DArchitects%2BDaughter;fontSize=16;exitX=0.971;exitY=0.243;exitDx=0;exitDy=0;exitPerimeter=0;" parent="1" source="5fDDdlRVlFWuMGhj4j6F-63" target="5fDDdlRVlFWuMGhj4j6F-65" edge="1">
          <mxGeometry width="160" relative="1" as="geometry">
            <mxPoint x="60" y="1220" as="sourcePoint" />
            <mxPoint x="178" y="1259" as="targetPoint" />
          </mxGeometry>
        </mxCell>
        <mxCell id="5fDDdlRVlFWuMGhj4j6F-69" value="营销管理" style="ellipse;whiteSpace=wrap;html=1;sketch=1;hachureGap=4;jiggle=2;curveFitting=1;fontFamily=Architects Daughter;fontSource=https%3A%2F%2Ffonts.googleapis.com%2Fcss%3Ffamily%3DArchitects%2BDaughter;fontSize=20;fillColor=#fff2cc;strokeColor=#d6b656;" parent="1" vertex="1">
          <mxGeometry x="310" y="2015" width="140" height="70" as="geometry" />
        </mxCell>
        <mxCell id="5fDDdlRVlFWuMGhj4j6F-70" style="rounded=0;sketch=1;hachureGap=4;jiggle=2;curveFitting=1;orthogonalLoop=1;jettySize=auto;html=1;entryX=0;entryY=0.543;entryDx=0;entryDy=0;entryPerimeter=0;fontFamily=Architects Daughter;fontSource=https%3A%2F%2Ffonts.googleapis.com%2Fcss%3Ffamily%3DArchitects%2BDaughter;fontSize=16;" parent="1" source="5fDDdlRVlFWuMGhj4j6F-4" target="5fDDdlRVlFWuMGhj4j6F-69" edge="1">
          <mxGeometry relative="1" as="geometry" />
        </mxCell>
        <mxCell id="5fDDdlRVlFWuMGhj4j6F-71" value="删除设备" style="ellipse;whiteSpace=wrap;html=1;sketch=1;hachureGap=4;jiggle=2;curveFitting=1;fontFamily=Architects Daughter;fontSource=https%3A%2F%2Ffonts.googleapis.com%2Fcss%3Ffamily%3DArchitects%2BDaughter;fontSize=20;fillColor=#f5f5f5;strokeColor=#666666;fontColor=#333333;" parent="1" vertex="1">
          <mxGeometry x="-260" y="2335" width="140" height="70" as="geometry" />
        </mxCell>
        <mxCell id="5fDDdlRVlFWuMGhj4j6F-72" value="" style="endArrow=open;endSize=12;dashed=1;html=1;rounded=0;sketch=1;hachureGap=4;jiggle=2;curveFitting=1;fontFamily=Architects Daughter;fontSource=https%3A%2F%2Ffonts.googleapis.com%2Fcss%3Ffamily%3DArchitects%2BDaughter;fontSize=16;exitX=0.498;exitY=1.016;exitDx=0;exitDy=0;exitPerimeter=0;entryX=0.474;entryY=-0.044;entryDx=0;entryDy=0;entryPerimeter=0;" parent="1" source="zBp83v5MwMUTdgpoldUR-66" target="5fDDdlRVlFWuMGhj4j6F-71" edge="1">
          <mxGeometry width="160" relative="1" as="geometry">
            <mxPoint x="126" y="2441" as="sourcePoint" />
            <mxPoint x="274" y="2567" as="targetPoint" />
          </mxGeometry>
        </mxCell>
        <mxCell id="5fDDdlRVlFWuMGhj4j6F-73" value="品牌维护" style="ellipse;whiteSpace=wrap;html=1;sketch=1;hachureGap=4;jiggle=2;curveFitting=1;fontFamily=Architects Daughter;fontSource=https%3A%2F%2Ffonts.googleapis.com%2Fcss%3Ffamily%3DArchitects%2BDaughter;fontSize=20;fillColor=#f5f5f5;strokeColor=#666666;fontColor=#333333;" parent="1" vertex="1">
          <mxGeometry x="65" y="1632" width="140" height="70" as="geometry" />
        </mxCell>
        <mxCell id="5fDDdlRVlFWuMGhj4j6F-75" value="" style="endArrow=open;endSize=12;dashed=1;html=1;rounded=0;sketch=1;hachureGap=4;jiggle=2;curveFitting=1;fontFamily=Architects Daughter;fontSource=https%3A%2F%2Ffonts.googleapis.com%2Fcss%3Ffamily%3DArchitects%2BDaughter;fontSize=16;entryX=0.454;entryY=0.992;entryDx=0;entryDy=0;entryPerimeter=0;exitX=0.478;exitY=-0.013;exitDx=0;exitDy=0;exitPerimeter=0;" parent="1" source="5fDDdlRVlFWuMGhj4j6F-42" target="5fDDdlRVlFWuMGhj4j6F-73" edge="1">
          <mxGeometry width="160" relative="1" as="geometry">
            <mxPoint x="26" y="1717" as="sourcePoint" />
            <mxPoint x="134" y="1590" as="targetPoint" />
          </mxGeometry>
        </mxCell>
        <mxCell id="5fDDdlRVlFWuMGhj4j6F-77" value="计费设置" style="ellipse;whiteSpace=wrap;html=1;sketch=1;hachureGap=4;jiggle=2;curveFitting=1;fontFamily=Architects Daughter;fontSource=https%3A%2F%2Ffonts.googleapis.com%2Fcss%3Ffamily%3DArchitects%2BDaughter;fontSize=20;fillColor=#f5f5f5;strokeColor=#666666;fontColor=#333333;" parent="1" vertex="1">
          <mxGeometry x="500" y="2232" width="140" height="70" as="geometry" />
        </mxCell>
        <mxCell id="5fDDdlRVlFWuMGhj4j6F-80" value="系统管理" style="ellipse;whiteSpace=wrap;html=1;sketch=1;hachureGap=4;jiggle=2;curveFitting=1;fontFamily=Architects Daughter;fontSource=https%3A%2F%2Ffonts.googleapis.com%2Fcss%3Ffamily%3DArchitects%2BDaughter;fontSize=20;fillColor=#f8cecc;strokeColor=#b85450;" parent="1" vertex="1">
          <mxGeometry x="-50" y="2990" width="120" height="80" as="geometry" />
        </mxCell>
        <mxCell id="5fDDdlRVlFWuMGhj4j6F-81" value="用户管理" style="ellipse;whiteSpace=wrap;html=1;sketch=1;hachureGap=4;jiggle=2;curveFitting=1;fontFamily=Architects Daughter;fontSource=https%3A%2F%2Ffonts.googleapis.com%2Fcss%3Ffamily%3DArchitects%2BDaughter;fontSize=20;fillColor=#f5f5f5;strokeColor=#666666;fontColor=#333333;" parent="1" vertex="1">
          <mxGeometry x="230" y="2830" width="140" height="70" as="geometry" />
        </mxCell>
        <mxCell id="5fDDdlRVlFWuMGhj4j6F-84" value="角色管理" style="ellipse;whiteSpace=wrap;html=1;sketch=1;hachureGap=4;jiggle=2;curveFitting=1;fontFamily=Architects Daughter;fontSource=https%3A%2F%2Ffonts.googleapis.com%2Fcss%3Ffamily%3DArchitects%2BDaughter;fontSize=20;fillColor=#f5f5f5;strokeColor=#666666;fontColor=#333333;" parent="1" vertex="1">
          <mxGeometry x="230" y="2950" width="140" height="70" as="geometry" />
        </mxCell>
        <mxCell id="5fDDdlRVlFWuMGhj4j6F-85" value="菜单管理" style="ellipse;whiteSpace=wrap;html=1;sketch=1;hachureGap=4;jiggle=2;curveFitting=1;fontFamily=Architects Daughter;fontSource=https%3A%2F%2Ffonts.googleapis.com%2Fcss%3Ffamily%3DArchitects%2BDaughter;fontSize=20;fillColor=#f5f5f5;strokeColor=#666666;fontColor=#333333;" parent="1" vertex="1">
          <mxGeometry x="230" y="3070" width="140" height="70" as="geometry" />
        </mxCell>
        <mxCell id="5fDDdlRVlFWuMGhj4j6F-86" value="...管理" style="ellipse;whiteSpace=wrap;html=1;sketch=1;hachureGap=4;jiggle=2;curveFitting=1;fontFamily=Architects Daughter;fontSource=https%3A%2F%2Ffonts.googleapis.com%2Fcss%3Ffamily%3DArchitects%2BDaughter;fontSize=20;fillColor=#f5f5f5;strokeColor=#666666;fontColor=#333333;" parent="1" vertex="1">
          <mxGeometry x="230" y="3190" width="140" height="70" as="geometry" />
        </mxCell>
        <mxCell id="5fDDdlRVlFWuMGhj4j6F-87" value="" style="endArrow=open;endSize=12;dashed=1;html=1;rounded=0;sketch=1;hachureGap=4;jiggle=2;curveFitting=1;fontFamily=Architects Daughter;fontSource=https%3A%2F%2Ffonts.googleapis.com%2Fcss%3Ffamily%3DArchitects%2BDaughter;fontSize=16;entryX=-0.006;entryY=0.54;entryDx=0;entryDy=0;entryPerimeter=0;exitX=1.011;exitY=0.4;exitDx=0;exitDy=0;exitPerimeter=0;" parent="1" source="5fDDdlRVlFWuMGhj4j6F-80" target="5fDDdlRVlFWuMGhj4j6F-81" edge="1">
          <mxGeometry width="160" relative="1" as="geometry">
            <mxPoint x="140" y="2900" as="sourcePoint" />
            <mxPoint x="40" y="2852" as="targetPoint" />
          </mxGeometry>
        </mxCell>
        <mxCell id="5fDDdlRVlFWuMGhj4j6F-88" value="" style="endArrow=open;endSize=12;dashed=1;html=1;rounded=0;sketch=1;hachureGap=4;jiggle=2;curveFitting=1;fontFamily=Architects Daughter;fontSource=https%3A%2F%2Ffonts.googleapis.com%2Fcss%3Ffamily%3DArchitects%2BDaughter;fontSize=16;entryX=0.01;entryY=0.548;entryDx=0;entryDy=0;entryPerimeter=0;exitX=1.02;exitY=0.56;exitDx=0;exitDy=0;exitPerimeter=0;" parent="1" source="5fDDdlRVlFWuMGhj4j6F-80" target="5fDDdlRVlFWuMGhj4j6F-84" edge="1">
          <mxGeometry width="160" relative="1" as="geometry">
            <mxPoint x="101" y="3020" as="sourcePoint" />
            <mxPoint x="239" y="2878" as="targetPoint" />
          </mxGeometry>
        </mxCell>
        <mxCell id="5fDDdlRVlFWuMGhj4j6F-89" value="" style="endArrow=open;endSize=12;dashed=1;html=1;rounded=0;sketch=1;hachureGap=4;jiggle=2;curveFitting=1;fontFamily=Architects Daughter;fontSource=https%3A%2F%2Ffonts.googleapis.com%2Fcss%3Ffamily%3DArchitects%2BDaughter;fontSize=16;entryX=0.002;entryY=0.468;entryDx=0;entryDy=0;entryPerimeter=0;exitX=0.993;exitY=0.699;exitDx=0;exitDy=0;exitPerimeter=0;" parent="1" source="5fDDdlRVlFWuMGhj4j6F-80" target="5fDDdlRVlFWuMGhj4j6F-85" edge="1">
          <mxGeometry width="160" relative="1" as="geometry">
            <mxPoint x="102" y="3033" as="sourcePoint" />
            <mxPoint x="241" y="2998" as="targetPoint" />
          </mxGeometry>
        </mxCell>
        <mxCell id="5fDDdlRVlFWuMGhj4j6F-90" value="" style="endArrow=open;endSize=12;dashed=1;html=1;rounded=0;sketch=1;hachureGap=4;jiggle=2;curveFitting=1;fontFamily=Architects Daughter;fontSource=https%3A%2F%2Ffonts.googleapis.com%2Fcss%3Ffamily%3DArchitects%2BDaughter;fontSize=16;entryX=-0.006;entryY=0.5;entryDx=0;entryDy=0;entryPerimeter=0;exitX=0.956;exitY=0.81;exitDx=0;exitDy=0;exitPerimeter=0;" parent="1" source="5fDDdlRVlFWuMGhj4j6F-80" target="5fDDdlRVlFWuMGhj4j6F-86" edge="1">
          <mxGeometry width="160" relative="1" as="geometry">
            <mxPoint x="99" y="3044" as="sourcePoint" />
            <mxPoint x="240" y="3113" as="targetPoint" />
          </mxGeometry>
        </mxCell>
        <mxCell id="5fDDdlRVlFWuMGhj4j6F-91" style="rounded=0;sketch=1;hachureGap=4;jiggle=2;curveFitting=1;orthogonalLoop=1;jettySize=auto;html=1;entryX=-0.007;entryY=0.435;entryDx=0;entryDy=0;entryPerimeter=0;fontFamily=Architects Daughter;fontSource=https%3A%2F%2Ffonts.googleapis.com%2Fcss%3Ffamily%3DArchitects%2BDaughter;fontSize=16;" parent="1" source="5fDDdlRVlFWuMGhj4j6F-25" target="5fDDdlRVlFWuMGhj4j6F-80" edge="1">
          <mxGeometry relative="1" as="geometry" />
        </mxCell>
        <mxCell id="5fDDdlRVlFWuMGhj4j6F-92" value="品牌管理" style="ellipse;whiteSpace=wrap;html=1;sketch=1;hachureGap=4;jiggle=2;curveFitting=1;fontFamily=Architects Daughter;fontSource=https%3A%2F%2Ffonts.googleapis.com%2Fcss%3Ffamily%3DArchitects%2BDaughter;fontSize=20;fillColor=#dae8fc;strokeColor=#6c8ebf;" parent="1" vertex="1">
          <mxGeometry x="-125" y="3160" width="120" height="80" as="geometry" />
        </mxCell>
        <mxCell id="5fDDdlRVlFWuMGhj4j6F-94" value="房间管理" style="ellipse;whiteSpace=wrap;html=1;sketch=1;hachureGap=4;jiggle=2;curveFitting=1;fontFamily=Architects Daughter;fontSource=https%3A%2F%2Ffonts.googleapis.com%2Fcss%3Ffamily%3DArchitects%2BDaughter;fontSize=20;fillColor=#dae8fc;strokeColor=#6c8ebf;" parent="1" vertex="1">
          <mxGeometry x="-360" y="3200" width="120" height="80" as="geometry" />
        </mxCell>
        <mxCell id="5fDDdlRVlFWuMGhj4j6F-95" value="设备管理" style="ellipse;whiteSpace=wrap;html=1;sketch=1;hachureGap=4;jiggle=2;curveFitting=1;fontFamily=Architects Daughter;fontSource=https%3A%2F%2Ffonts.googleapis.com%2Fcss%3Ffamily%3DArchitects%2BDaughter;fontSize=20;fillColor=#dae8fc;strokeColor=#6c8ebf;" parent="1" vertex="1">
          <mxGeometry x="-650" y="2978" width="120" height="80" as="geometry" />
        </mxCell>
        <mxCell id="5fDDdlRVlFWuMGhj4j6F-96" value="订单管理" style="ellipse;whiteSpace=wrap;html=1;sketch=1;hachureGap=4;jiggle=2;curveFitting=1;fontFamily=Architects Daughter;fontSource=https%3A%2F%2Ffonts.googleapis.com%2Fcss%3Ffamily%3DArchitects%2BDaughter;fontSize=20;fillColor=#dae8fc;strokeColor=#6c8ebf;" parent="1" vertex="1">
          <mxGeometry x="-450" y="2750" width="120" height="80" as="geometry" />
        </mxCell>
        <mxCell id="5fDDdlRVlFWuMGhj4j6F-97" value="营业数据" style="ellipse;whiteSpace=wrap;html=1;sketch=1;hachureGap=4;jiggle=2;curveFitting=1;fontFamily=Architects Daughter;fontSource=https%3A%2F%2Ffonts.googleapis.com%2Fcss%3Ffamily%3DArchitects%2BDaughter;fontSize=20;fillColor=#dae8fc;strokeColor=#6c8ebf;" parent="1" vertex="1">
          <mxGeometry x="-260" y="2750" width="120" height="80" as="geometry" />
        </mxCell>
        <mxCell id="5fDDdlRVlFWuMGhj4j6F-98" value="门店管理" style="ellipse;whiteSpace=wrap;html=1;sketch=1;hachureGap=4;jiggle=2;curveFitting=1;fontFamily=Architects Daughter;fontSource=https%3A%2F%2Ffonts.googleapis.com%2Fcss%3Ffamily%3DArchitects%2BDaughter;fontSize=20;fillColor=#dae8fc;strokeColor=#6c8ebf;" parent="1" vertex="1">
          <mxGeometry x="-80" y="2830" width="120" height="80" as="geometry" />
        </mxCell>
        <mxCell id="5fDDdlRVlFWuMGhj4j6F-99" style="rounded=0;sketch=1;hachureGap=4;jiggle=2;curveFitting=1;orthogonalLoop=1;jettySize=auto;html=1;entryX=0.479;entryY=1;entryDx=0;entryDy=0;entryPerimeter=0;fontFamily=Architects Daughter;fontSource=https%3A%2F%2Ffonts.googleapis.com%2Fcss%3Ffamily%3DArchitects%2BDaughter;fontSize=16;" parent="1" source="5fDDdlRVlFWuMGhj4j6F-25" target="5fDDdlRVlFWuMGhj4j6F-97" edge="1">
          <mxGeometry relative="1" as="geometry" />
        </mxCell>
        <mxCell id="5fDDdlRVlFWuMGhj4j6F-100" style="rounded=0;sketch=1;hachureGap=4;jiggle=2;curveFitting=1;orthogonalLoop=1;jettySize=auto;html=1;entryX=1.03;entryY=0.483;entryDx=0;entryDy=0;entryPerimeter=0;fontFamily=Architects Daughter;fontSource=https%3A%2F%2Ffonts.googleapis.com%2Fcss%3Ffamily%3DArchitects%2BDaughter;fontSize=16;" parent="1" source="5fDDdlRVlFWuMGhj4j6F-25" target="5fDDdlRVlFWuMGhj4j6F-95" edge="1">
          <mxGeometry relative="1" as="geometry" />
        </mxCell>
        <mxCell id="5fDDdlRVlFWuMGhj4j6F-101" style="rounded=0;sketch=1;hachureGap=4;jiggle=2;curveFitting=1;orthogonalLoop=1;jettySize=auto;html=1;entryX=0.231;entryY=-0.008;entryDx=0;entryDy=0;entryPerimeter=0;fontFamily=Architects Daughter;fontSource=https%3A%2F%2Ffonts.googleapis.com%2Fcss%3Ffamily%3DArchitects%2BDaughter;fontSize=16;" parent="1" source="5fDDdlRVlFWuMGhj4j6F-25" target="5fDDdlRVlFWuMGhj4j6F-92" edge="1">
          <mxGeometry relative="1" as="geometry" />
        </mxCell>
        <mxCell id="5fDDdlRVlFWuMGhj4j6F-103" style="rounded=0;sketch=1;hachureGap=4;jiggle=2;curveFitting=1;orthogonalLoop=1;jettySize=auto;html=1;entryX=0.589;entryY=0.025;entryDx=0;entryDy=0;entryPerimeter=0;fontFamily=Architects Daughter;fontSource=https%3A%2F%2Ffonts.googleapis.com%2Fcss%3Ffamily%3DArchitects%2BDaughter;fontSize=16;" parent="1" source="5fDDdlRVlFWuMGhj4j6F-25" target="5fDDdlRVlFWuMGhj4j6F-94" edge="1">
          <mxGeometry relative="1" as="geometry" />
        </mxCell>
        <mxCell id="5fDDdlRVlFWuMGhj4j6F-104" style="rounded=0;sketch=1;hachureGap=4;jiggle=2;curveFitting=1;orthogonalLoop=1;jettySize=auto;html=1;entryX=0.891;entryY=0.889;entryDx=0;entryDy=0;entryPerimeter=0;fontFamily=Architects Daughter;fontSource=https%3A%2F%2Ffonts.googleapis.com%2Fcss%3Ffamily%3DArchitects%2BDaughter;fontSize=16;" parent="1" source="5fDDdlRVlFWuMGhj4j6F-25" target="5fDDdlRVlFWuMGhj4j6F-96" edge="1">
          <mxGeometry relative="1" as="geometry" />
        </mxCell>
        <mxCell id="5fDDdlRVlFWuMGhj4j6F-105" style="rounded=0;sketch=1;hachureGap=4;jiggle=2;curveFitting=1;orthogonalLoop=1;jettySize=auto;html=1;entryX=0.085;entryY=0.847;entryDx=0;entryDy=0;entryPerimeter=0;fontFamily=Architects Daughter;fontSource=https%3A%2F%2Ffonts.googleapis.com%2Fcss%3Ffamily%3DArchitects%2BDaughter;fontSize=16;" parent="1" source="5fDDdlRVlFWuMGhj4j6F-25" target="5fDDdlRVlFWuMGhj4j6F-98" edge="1">
          <mxGeometry relative="1" as="geometry" />
        </mxCell>
        <mxCell id="5fDDdlRVlFWuMGhj4j6F-107" value="营销管理" style="ellipse;whiteSpace=wrap;html=1;sketch=1;hachureGap=4;jiggle=2;curveFitting=1;fontFamily=Architects Daughter;fontSource=https%3A%2F%2Ffonts.googleapis.com%2Fcss%3Ffamily%3DArchitects%2BDaughter;fontSize=20;fillColor=#dae8fc;strokeColor=#6c8ebf;" parent="1" vertex="1">
          <mxGeometry x="-580" y="3150" width="120" height="80" as="geometry" />
        </mxCell>
        <mxCell id="5fDDdlRVlFWuMGhj4j6F-108" style="rounded=0;sketch=1;hachureGap=4;jiggle=2;curveFitting=1;orthogonalLoop=1;jettySize=auto;html=1;entryX=0.928;entryY=0.188;entryDx=0;entryDy=0;entryPerimeter=0;fontFamily=Architects Daughter;fontSource=https%3A%2F%2Ffonts.googleapis.com%2Fcss%3Ffamily%3DArchitects%2BDaughter;fontSize=16;" parent="1" source="5fDDdlRVlFWuMGhj4j6F-25" target="5fDDdlRVlFWuMGhj4j6F-107" edge="1">
          <mxGeometry relative="1" as="geometry" />
        </mxCell>
        <mxCell id="5fDDdlRVlFWuMGhj4j6F-109" value="商家管理" style="ellipse;whiteSpace=wrap;html=1;sketch=1;hachureGap=4;jiggle=2;curveFitting=1;fontFamily=Architects Daughter;fontSource=https%3A%2F%2Ffonts.googleapis.com%2Fcss%3Ffamily%3DArchitects%2BDaughter;fontSize=20;fillColor=#f8cecc;strokeColor=#b85450;" parent="1" vertex="1">
          <mxGeometry x="-600" y="2843" width="120" height="80" as="geometry" />
        </mxCell>
        <mxCell id="5fDDdlRVlFWuMGhj4j6F-110" style="rounded=0;sketch=1;hachureGap=4;jiggle=2;curveFitting=1;orthogonalLoop=1;jettySize=auto;html=1;entryX=1.002;entryY=0.646;entryDx=0;entryDy=0;entryPerimeter=0;fontFamily=Architects Daughter;fontSource=https%3A%2F%2Ffonts.googleapis.com%2Fcss%3Ffamily%3DArchitects%2BDaughter;fontSize=16;" parent="1" source="5fDDdlRVlFWuMGhj4j6F-25" target="5fDDdlRVlFWuMGhj4j6F-109" edge="1">
          <mxGeometry relative="1" as="geometry" />
        </mxCell>
        <mxCell id="E-7WTjXXC4RqKMLbgJP--1" value="" style="endArrow=open;endSize=12;dashed=1;html=1;rounded=0;sketch=1;hachureGap=4;jiggle=2;curveFitting=1;fontFamily=Architects Daughter;fontSource=https%3A%2F%2Ffonts.googleapis.com%2Fcss%3Ffamily%3DArchitects%2BDaughter;fontSize=16;exitX=0.757;exitY=0.981;exitDx=0;exitDy=0;exitPerimeter=0;" parent="1" source="zBp83v5MwMUTdgpoldUR-55" target="zBp83v5MwMUTdgpoldUR-61" edge="1">
          <mxGeometry width="160" relative="1" as="geometry">
            <mxPoint x="277" y="2271" as="sourcePoint" />
            <mxPoint x="364" y="2345" as="targetPoint" />
          </mxGeometry>
        </mxCell>
        <mxCell id="E-7WTjXXC4RqKMLbgJP--2" value="" style="endArrow=open;endSize=12;dashed=1;html=1;rounded=0;sketch=1;hachureGap=4;jiggle=2;curveFitting=1;fontFamily=Architects Daughter;fontSource=https%3A%2F%2Ffonts.googleapis.com%2Fcss%3Ffamily%3DArchitects%2BDaughter;fontSize=16;exitX=0.995;exitY=0.657;exitDx=0;exitDy=0;exitPerimeter=0;" parent="1" source="zBp83v5MwMUTdgpoldUR-55" target="5fDDdlRVlFWuMGhj4j6F-77" edge="1">
          <mxGeometry width="160" relative="1" as="geometry">
            <mxPoint x="306" y="2269" as="sourcePoint" />
            <mxPoint x="525" y="2354" as="targetPoint" />
          </mxGeometry>
        </mxCell>
        <mxCell id="E-7WTjXXC4RqKMLbgJP--4" value="储值卡管理" style="ellipse;whiteSpace=wrap;html=1;sketch=1;hachureGap=4;jiggle=2;curveFitting=1;fontFamily=Architects Daughter;fontSource=https%3A%2F%2Ffonts.googleapis.com%2Fcss%3Ffamily%3DArchitects%2BDaughter;fontSize=20;fillColor=#f5f5f5;strokeColor=#666666;fontColor=#333333;" parent="1" vertex="1">
          <mxGeometry x="530" y="2010" width="140" height="70" as="geometry" />
        </mxCell>
        <mxCell id="E-7WTjXXC4RqKMLbgJP--5" value="优惠卷管理" style="ellipse;whiteSpace=wrap;html=1;sketch=1;hachureGap=4;jiggle=2;curveFitting=1;fontFamily=Architects Daughter;fontSource=https%3A%2F%2Ffonts.googleapis.com%2Fcss%3Ffamily%3DArchitects%2BDaughter;fontSize=20;fillColor=#f5f5f5;strokeColor=#666666;fontColor=#333333;" parent="1" vertex="1">
          <mxGeometry x="530" y="2110" width="140" height="70" as="geometry" />
        </mxCell>
        <mxCell id="E-7WTjXXC4RqKMLbgJP--6" value="" style="endArrow=open;endSize=12;dashed=1;html=1;rounded=0;sketch=1;hachureGap=4;jiggle=2;curveFitting=1;fontFamily=Architects Daughter;fontSource=https%3A%2F%2Ffonts.googleapis.com%2Fcss%3Ffamily%3DArchitects%2BDaughter;fontSize=16;exitX=0.967;exitY=0.395;exitDx=0;exitDy=0;exitPerimeter=0;" parent="1" source="5fDDdlRVlFWuMGhj4j6F-69" target="E-7WTjXXC4RqKMLbgJP--4" edge="1">
          <mxGeometry width="160" relative="1" as="geometry">
            <mxPoint x="422" y="1843" as="sourcePoint" />
            <mxPoint x="537" y="1952" as="targetPoint" />
          </mxGeometry>
        </mxCell>
        <mxCell id="E-7WTjXXC4RqKMLbgJP--7" value="" style="endArrow=open;endSize=12;dashed=1;html=1;rounded=0;sketch=1;hachureGap=4;jiggle=2;curveFitting=1;fontFamily=Architects Daughter;fontSource=https%3A%2F%2Ffonts.googleapis.com%2Fcss%3Ffamily%3DArchitects%2BDaughter;fontSize=16;exitX=0.995;exitY=0.7;exitDx=0;exitDy=0;exitPerimeter=0;entryX=-0.014;entryY=0.39;entryDx=0;entryDy=0;entryPerimeter=0;" parent="1" source="5fDDdlRVlFWuMGhj4j6F-69" target="E-7WTjXXC4RqKMLbgJP--5" edge="1">
          <mxGeometry width="160" relative="1" as="geometry">
            <mxPoint x="455" y="2053" as="sourcePoint" />
            <mxPoint x="540" y="2054" as="targetPoint" />
          </mxGeometry>
        </mxCell>
        <mxCell id="Gp8Uw24KBsA9sYgud_FF-25" value="&lt;div style=&quot;font-size: 16px;&quot;&gt;&lt;span style=&quot;text-wrap: wrap; font-size: 16px;&quot;&gt;&lt;font color=&quot;#000000&quot; style=&quot;font-size: 16px;&quot;&gt;CC&lt;/font&gt;&lt;/span&gt;&lt;/div&gt;" style="sketch=0;outlineConnect=0;fillColor=#6ABD46;strokeColor=#b85450;dashed=0;verticalLabelPosition=bottom;verticalAlign=top;align=center;html=1;fontSize=16;fontStyle=0;aspect=fixed;pointerEvents=1;shape=mxgraph.aws4.shield2;hachureGap=4;jiggle=2;curveFitting=1;fontFamily=Helvetica;" vertex="1" parent="1">
          <mxGeometry x="319" y="3971" width="88" height="88" as="geometry" />
        </mxCell>
        <mxCell id="Gp8Uw24KBsA9sYgud_FF-26" value="DDoS" style="verticalLabelPosition=bottom;sketch=0;html=1;fillColor=#6ABD46;strokeColor=#C73500;verticalAlign=top;pointerEvents=1;align=center;shape=mxgraph.cisco_safe.security_icons.ddos;hachureGap=4;jiggle=2;curveFitting=1;fontFamily=Helvetica;fontColor=#000000;fontSize=16;" vertex="1" parent="1">
          <mxGeometry x="476.5" y="3971" width="88" height="88" as="geometry" />
        </mxCell>
        <mxCell id="Gp8Uw24KBsA9sYgud_FF-137" style="edgeStyle=orthogonalEdgeStyle;rounded=0;sketch=1;hachureGap=4;jiggle=2;curveFitting=1;orthogonalLoop=1;jettySize=auto;html=1;fontFamily=Architects Daughter;fontSource=https%3A%2F%2Ffonts.googleapis.com%2Fcss%3Ffamily%3DArchitects%2BDaughter;" edge="1" parent="1" source="Gp8Uw24KBsA9sYgud_FF-36" target="Gp8Uw24KBsA9sYgud_FF-135">
          <mxGeometry relative="1" as="geometry" />
        </mxCell>
        <mxCell id="Gp8Uw24KBsA9sYgud_FF-138" style="edgeStyle=orthogonalEdgeStyle;rounded=0;sketch=1;hachureGap=4;jiggle=2;curveFitting=1;orthogonalLoop=1;jettySize=auto;html=1;fontFamily=Architects Daughter;fontSource=https%3A%2F%2Ffonts.googleapis.com%2Fcss%3Ffamily%3DArchitects%2BDaughter;" edge="1" parent="1" source="Gp8Uw24KBsA9sYgud_FF-36" target="Gp8Uw24KBsA9sYgud_FF-68">
          <mxGeometry relative="1" as="geometry" />
        </mxCell>
        <mxCell id="Gp8Uw24KBsA9sYgud_FF-36" value="&lt;font color=&quot;#000000&quot; style=&quot;font-size: 16px; font-weight: normal;&quot;&gt;CDN&lt;/font&gt;" style="sketch=0;html=1;verticalAlign=top;labelPosition=center;verticalLabelPosition=bottom;align=center;spacingTop=-6;fontSize=16;fontStyle=1;fontColor=#999999;shape=image;aspect=fixed;imageAspect=0;image=data:image/svg+xml,PHN2ZyB4bWxucz0iaHR0cDovL3d3dy53My5vcmcvMjAwMC9zdmciIHhtbG5zOnY9Imh0dHBzOi8vdmVjdGEuaW8vbmFubyIgd2lkdGg9IjIwIiBoZWlnaHQ9IjIwIiB2aWV3Qm94PSIwIDAgMjAgMjAiPiYjeGE7CTxzdHlsZSB0eXBlPSJ0ZXh0L2NzcyI+JiN4YTsJLnN0MHtmaWxsOiM0Mjg1ZjQ7fSYjeGE7CS5zdDF7ZmlsbDojNjY5ZGY2O30mI3hhOwkuc3Qye2ZpbGw6I2FlY2JmYTt9JiN4YTsJPC9zdHlsZT4mI3hhOwk8cGF0aCBjbGFzcz0ic3QxIiBkPSJNMTMuMTMgNS42M1YzLjIxTDEwIDB2Mi40MXptMy43NSA3LjVMMjAgMTBoLTIuNWwtMy4xMiAzLjEzem0tMTMuNzUgMEwwIDEwaDIuNWwzLjEzIDMuMTN6bTEwIDEuMjV2Mi40MUwxMCAyMHYtMi40MXoiIGZpbGwtcnVsZT0iZXZlbm9kZCIvPiYjeGE7CTxwYXRoIGNsYXNzPSJzdDIiIGQ9Ik02Ljg4IDUuNjNMMTAgMi40MVYwTDYuODggMy4yMXpNMTcuNSAxMEgyMGwtMy4xMi0zLjEyaC0yLjV6bS0xNSAwSDBsMy4xMy0zLjEyaDIuNXptNC4zOCA0LjM4TDEwIDE3LjU5VjIwbC0zLjEyLTMuMjF6bTAtNy41aDYuMjV2Ni4yNUg2Ljg4eiIgZmlsbC1ydWxlPSJldmVub2RkIi8+JiN4YTsJPHBhdGggY2xhc3M9InN0MSIgZD0iTTYuODggMTMuMTNsNi4yNS02LjI1djYuMjV6IiBmaWxsLXJ1bGU9ImV2ZW5vZGQiLz4mI3hhOwk8cGF0aCBjbGFzcz0ic3QwIiBkPSJNMTAgMTBsMy4xMy0zLjEydjYuMjV6IiBmaWxsLXJ1bGU9ImV2ZW5vZGQiLz4mI3hhOzwvc3ZnPg==;hachureGap=4;jiggle=2;curveFitting=1;fontFamily=Helvetica;imageBackground=default;" vertex="1" parent="1">
          <mxGeometry x="322" y="4136" width="88" height="88" as="geometry" />
        </mxCell>
        <mxCell id="Gp8Uw24KBsA9sYgud_FF-41" value="应用实例" style="image;aspect=fixed;html=1;points=[];align=center;fontSize=16;image=img/lib/azure2/compute/Azure_Spring_Cloud.svg;sketch=1;hachureGap=4;jiggle=2;curveFitting=1;fontFamily=Helvetica;" vertex="1" parent="1">
          <mxGeometry x="-21.5" y="4408" width="68" height="68" as="geometry" />
        </mxCell>
        <mxCell id="Gp8Uw24KBsA9sYgud_FF-51" value="" style="sketch=0;outlineConnect=0;fillColor=#59769E;strokeColor=#314157;dashed=0;verticalLabelPosition=bottom;verticalAlign=top;align=center;html=1;fontSize=16;fontStyle=0;aspect=fixed;pointerEvents=1;shape=mxgraph.aws4.rds_mysql_instance_alt;hachureGap=4;jiggle=2;curveFitting=1;fontFamily=Helvetica;" vertex="1" parent="1">
          <mxGeometry x="-92.75" y="4696" width="78" height="78" as="geometry" />
        </mxCell>
        <mxCell id="Gp8Uw24KBsA9sYgud_FF-53" value="" style="shape=image;html=1;verticalAlign=top;verticalLabelPosition=bottom;labelBackgroundColor=#ffffff;imageAspect=0;aspect=fixed;image=https://cdn3.iconfinder.com/data/icons/drifting/Me.png;sketch=1;hachureGap=4;jiggle=2;curveFitting=1;fontFamily=Helvetica;fontSize=16;" vertex="1" parent="1">
          <mxGeometry x="-76" y="4724" width="47" height="48" as="geometry" />
        </mxCell>
        <mxCell id="Gp8Uw24KBsA9sYgud_FF-54" value="" style="sketch=0;outlineConnect=0;fillColor=#59769E;strokeColor=#314157;dashed=0;verticalLabelPosition=bottom;verticalAlign=top;align=center;html=1;fontSize=16;fontStyle=0;aspect=fixed;pointerEvents=1;shape=mxgraph.aws4.rds_mysql_instance_alt;hachureGap=4;jiggle=2;curveFitting=1;fontFamily=Helvetica;" vertex="1" parent="1">
          <mxGeometry x="90.75" y="4696" width="78" height="78" as="geometry" />
        </mxCell>
        <mxCell id="Gp8Uw24KBsA9sYgud_FF-55" value="" style="shape=image;html=1;verticalAlign=top;verticalLabelPosition=bottom;labelBackgroundColor=#ffffff;imageAspect=0;aspect=fixed;image=https://cdn3.iconfinder.com/data/icons/drifting/Me.png;sketch=1;hachureGap=4;jiggle=2;curveFitting=1;fontFamily=Helvetica;fontSize=16;" vertex="1" parent="1">
          <mxGeometry x="107.5" y="4724" width="47" height="48" as="geometry" />
        </mxCell>
        <mxCell id="Gp8Uw24KBsA9sYgud_FF-58" value="&lt;font style=&quot;font-size: 16px;&quot;&gt;Redis&lt;/font&gt;" style="image;sketch=0;aspect=fixed;html=1;points=[];align=center;fontSize=16;image=img/lib/mscae/Cache_Redis_Product.svg;hachureGap=4;jiggle=2;curveFitting=1;fontFamily=Helvetica;" vertex="1" parent="1">
          <mxGeometry x="239.66999999999996" y="4700.959999999999" width="78" height="65.52" as="geometry" />
        </mxCell>
        <mxCell id="Gp8Uw24KBsA9sYgud_FF-60" value="&lt;font style=&quot;font-size: 16px;&quot;&gt;Redis&lt;/font&gt;" style="image;sketch=0;aspect=fixed;html=1;points=[];align=center;fontSize=16;image=img/lib/mscae/Cache_Redis_Product.svg;hachureGap=4;jiggle=2;curveFitting=1;fontFamily=Helvetica;" vertex="1" parent="1">
          <mxGeometry x="405.67" y="4700.96" width="78" height="65.52" as="geometry" />
        </mxCell>
        <mxCell id="Gp8Uw24KBsA9sYgud_FF-62" value="&lt;font style=&quot;font-size: 16px;&quot;&gt;DevOps&lt;/font&gt;" style="sketch=0;points=[[0,0,0],[0.25,0,0],[0.5,0,0],[0.75,0,0],[1,0,0],[0,1,0],[0.25,1,0],[0.5,1,0],[0.75,1,0],[1,1,0],[0,0.25,0],[0,0.5,0],[0,0.75,0],[1,0.25,0],[1,0.5,0],[1,0.75,0]];outlineConnect=0;fontColor=#232F3E;fillColor=#01A88D;strokeColor=#ffffff;dashed=0;verticalLabelPosition=bottom;verticalAlign=top;align=center;html=1;fontSize=16;fontStyle=0;aspect=fixed;shape=mxgraph.aws4.resourceIcon;resIcon=mxgraph.aws4.devops_guru;hachureGap=4;jiggle=2;curveFitting=1;fontFamily=Helvetica;" vertex="1" parent="1">
          <mxGeometry x="-286" y="3985.88" width="78" height="78" as="geometry" />
        </mxCell>
        <mxCell id="Gp8Uw24KBsA9sYgud_FF-63" value="日志服务" style="sketch=0;pointerEvents=1;shadow=0;dashed=0;html=1;strokeColor=none;fillColor=#434445;aspect=fixed;labelPosition=center;verticalLabelPosition=bottom;verticalAlign=top;align=center;outlineConnect=0;shape=mxgraph.vvd.log_files;hachureGap=4;jiggle=2;curveFitting=1;fontFamily=Helvetica;fontSize=16;" vertex="1" parent="1">
          <mxGeometry x="-279.2" y="4445.88" width="62.4" height="78" as="geometry" />
        </mxCell>
        <mxCell id="Gp8Uw24KBsA9sYgud_FF-65" value="监控" style="verticalLabelPosition=bottom;shadow=0;dashed=0;align=center;html=1;verticalAlign=top;strokeWidth=1;shape=mxgraph.mockup.graphics.lineChart;strokeColor=none;strokeColor2=#666666;strokeColor3=#008cff;strokeColor4=#dddddd;sketch=1;hachureGap=4;jiggle=2;curveFitting=1;fontFamily=Helvetica;aspect=fixed;fontSize=16;" vertex="1" parent="1">
          <mxGeometry x="-287" y="4211.38" width="78" height="79" as="geometry" />
        </mxCell>
        <mxCell id="Gp8Uw24KBsA9sYgud_FF-66" value="&lt;font style=&quot;font-size: 16px;&quot; face=&quot;Helvetica&quot;&gt;弹性扩缩容&lt;/font&gt;" style="sketch=0;points=[[0,0,0],[0.25,0,0],[0.5,0,0],[0.75,0,0],[1,0,0],[0,1,0],[0.25,1,0],[0.5,1,0],[0.75,1,0],[1,1,0],[0,0.25,0],[0,0.5,0],[0,0.75,0],[1,0.25,0],[1,0.5,0],[1,0.75,0]];outlineConnect=0;fillColor=#d5e8d4;strokeColor=#82b366;dashed=0;verticalLabelPosition=bottom;verticalAlign=top;align=center;html=1;fontSize=12;fontStyle=0;aspect=fixed;shape=mxgraph.aws4.resourceIcon;resIcon=mxgraph.aws4.eks;hachureGap=4;jiggle=2;curveFitting=1;fontFamily=Architects Daughter;fontSource=https%3A%2F%2Ffonts.googleapis.com%2Fcss%3Ffamily%3DArchitects%2BDaughter;" vertex="1" parent="1">
          <mxGeometry x="-286.99999999999994" y="4688.36" width="78" height="78" as="geometry" />
        </mxCell>
        <mxCell id="Gp8Uw24KBsA9sYgud_FF-134" style="edgeStyle=orthogonalEdgeStyle;rounded=0;sketch=1;hachureGap=4;jiggle=2;curveFitting=1;orthogonalLoop=1;jettySize=auto;html=1;fontFamily=Architects Daughter;fontSource=https%3A%2F%2Ffonts.googleapis.com%2Fcss%3Ffamily%3DArchitects%2BDaughter;" edge="1" parent="1" source="Gp8Uw24KBsA9sYgud_FF-68" target="Gp8Uw24KBsA9sYgud_FF-108">
          <mxGeometry relative="1" as="geometry" />
        </mxCell>
        <mxCell id="Gp8Uw24KBsA9sYgud_FF-68" value="&lt;font style=&quot;font-size: 16px;&quot; face=&quot;Helvetica&quot;&gt;LB&lt;/font&gt;" style="editableCssRules=.*;html=1;shape=image;verticalLabelPosition=bottom;labelBackgroundColor=#ffffff;verticalAlign=top;aspect=fixed;imageAspect=0;image=data:image/svg+xml,PHN2ZyB4bWxucz0iaHR0cDovL3d3dy53My5vcmcvMjAwMC9zdmciIHhtbG5zOnY9Imh0dHBzOi8vdmVjdGEuaW8vbmFubyIgd2lkdGg9IjIwIiBoZWlnaHQ9IjIwIiB2aWV3Qm94PSIwIDAgMjAgMjAiPiYjeGE7CTxzdHlsZSB0eXBlPSJ0ZXh0L2NzcyI+LnN0MCB7IGZpbGw6IHJnYigxMDYsIDE4OSwgNzApOyB9IC5zdDEgeyBmaWxsOiByZ2IoMTg1LCAyMjQsIDE2NSk7IH0gLnN0MiB7IGZpbGw6IHJnYigyMTMsIDIzMiwgMjEyKTsgfSA8L3N0eWxlPiYjeGE7CTxwYXRoIGNsYXNzPSJzdDEiIGQ9Ik0xNiAxMGgydjRoLTJ6bS03IDBoMnY0SDl6bS03IDBoMnY0SDJ6Ii8+JiN4YTsJPHBhdGggY2xhc3M9InN0MCIgZD0iTTkgNWgydjRIOXoiLz4mI3hhOwk8cGF0aCBjbGFzcz0ic3QxIiBkPSJNMiA5aDE2djJIMnoiLz4mI3hhOwk8cGF0aCBjbGFzcz0ic3QyIiBkPSJNNCAwaDEydjVINHoiLz4mI3hhOwk8cGF0aCBjbGFzcz0ic3QxIiBkPSJNMTAgMGg2djVoLTZ6Ii8+JiN4YTsJPHBhdGggY2xhc3M9InN0MiIgZD0iTTE0IDE0aDZ2NmgtNnpNMCAxNGg2djZIMHoiLz4mI3hhOwk8cGF0aCBjbGFzcz0ic3QxIiBkPSJNMyAxNGgzdjZIM3oiLz4mI3hhOwk8cGF0aCBjbGFzcz0ic3QyIiBkPSJNNyAxNGg2djZIN3oiLz4mI3hhOwk8cGF0aCBjbGFzcz0ic3QxIiBkPSJNMTAgMTRoM3Y2aC0zem03IDBoM3Y2aC0zeiIvPiYjeGE7PC9zdmc+;sketch=1;hachureGap=4;jiggle=2;curveFitting=1;fontFamily=Architects Daughter;fontSource=https%3A%2F%2Ffonts.googleapis.com%2Fcss%3Ffamily%3DArchitects%2BDaughter;" vertex="1" parent="1">
          <mxGeometry x="587.25" y="4236" width="55" height="55" as="geometry" />
        </mxCell>
        <mxCell id="Gp8Uw24KBsA9sYgud_FF-79" value="&lt;font color=&quot;#000000&quot; style=&quot;font-size: 16px;&quot; face=&quot;Helvetica&quot;&gt;Web&lt;/font&gt;" style="fontColor=#0066CC;verticalAlign=top;verticalLabelPosition=bottom;labelPosition=center;align=center;html=1;outlineConnect=0;fillColor=#CCCCCC;strokeColor=#6881B3;gradientColor=none;gradientDirection=north;strokeWidth=2;shape=mxgraph.networks.pc;sketch=1;hachureGap=4;jiggle=2;curveFitting=1;fontFamily=Architects Daughter;fontSource=https%3A%2F%2Ffonts.googleapis.com%2Fcss%3Ffamily%3DArchitects%2BDaughter;aspect=fixed;" vertex="1" parent="1">
          <mxGeometry x="389.97" y="3672" width="125.71" height="88" as="geometry" />
        </mxCell>
        <mxCell id="Gp8Uw24KBsA9sYgud_FF-81" value="&lt;font style=&quot;font-size: 16px;&quot; face=&quot;Helvetica&quot;&gt;文件储存&lt;/font&gt;" style="sketch=0;outlineConnect=0;fontColor=#232F3E;gradientColor=none;fillColor=#7AA116;strokeColor=none;dashed=0;verticalLabelPosition=bottom;verticalAlign=top;align=center;html=1;fontSize=12;fontStyle=0;aspect=fixed;pointerEvents=1;shape=mxgraph.aws4.file_cache_on_premises_nfs_linked_datasets;hachureGap=4;jiggle=2;curveFitting=1;fontFamily=Architects Daughter;fontSource=https%3A%2F%2Ffonts.googleapis.com%2Fcss%3Ffamily%3DArchitects%2BDaughter;" vertex="1" parent="1">
          <mxGeometry x="748.25" y="4694" width="78" height="78" as="geometry" />
        </mxCell>
        <mxCell id="Gp8Uw24KBsA9sYgud_FF-83" value="小程序" style="shape=image;verticalLabelPosition=bottom;labelBackgroundColor=default;verticalAlign=top;aspect=fixed;imageAspect=0;image=data:image/png,iVBORw0KGgoAAAANSUhEUgAAACQAAAAkCAMAAADW3miqAAABXFBMVEUAAAAA/wAA/4AAqlUAtm0Av2AAxlUAzGYAv2oAxGIAyFsAu2YAv2AAw1oMwmEMxV0LvGQLv2AKwlwJvV4Iw2IHwWAHw14GwWAGwl4FwV4FwmEFw18Fwl4Jw2EJv2AIwGAIwV8Iv2IHwGAHwV8HwF4Hw2EHwGAGwmEGwWAGwGAGwV8GwWEGwmAGwGEIwV8IwmAIwWAIwV8HwV8GwF8GwWAGwmAGwWAIwmEIwV8IwWEIwF8IwWAHwGAHwWEHwl8HwWAHwWAHwWEHwmAHwF8HwWAGwWAGwl8GwGAGwmAGwWAIwWAIwGAIwWAHwWAHwWAHwl8HwWAGwWAGwWEGwWAGwWAIwWAIwWAIwV8HwWEHwWAHwWAHwV8HwWAHwGAHwmAHwWAHwV8HwWAHwWAHwWAHwWAHwWAHwV8GwWAIwWAHwV8HwWAHwWAHwWAHwWAHwWAHwWAHwV8HwWAHwWD///+kQSAnAAAAcnRSTlMAAQIDBwgJCgwNDg8QERUWFxgZGyIlJi0uMTIzNjc4PT5ERUZJTE1PUlVWV1hZXmBiY3N2d31/gYOEhoeKjJaXmJmam5ydnp+ipKWnqLW6u8HFxsfIycrLzs/R09XY4OLj5efo6err7O3z9PX3+Pn6+/5CaJDGAAAAAWJLR0RzQQk9zgAAAaRJREFUGBm1wedfUlEAx+FvCAZmgxIz23uoLUuy3KM8li3MhqVSYHkv3gu///9F5wDyOQhvfR6ORt/Y4kY5jssbC6MZuhtcDtUSLuXo1DtdVZt4KsUhuU11KJylzYWyutgZwpMrq6udLC29m2pX2QpVV0hyYFq+2uvhY/RcXZOTp2mwKk98l4ZxWXtZGpblewo9N59cAVZkzVDXF8rzN0X/N0nvEgzKCtI4Y/K9hwk5t+GPrBGcRflWwch5CEVZ8zgb8hkwsn6mOVOTtY6zq6bKj0AyYKQwn4FJOSWcSHXRRD+XJANGGgFuVeXs40Ry4hvAqGTASMOcfBGrbh9nV84kZPIVyYCR9r5X1FTC+SKrdprML1kGjHwFnAVZRXgkx8CqfHM4o7J+wx05z+GDfPdxMqGsHIm3kr6e4Pg/eYI0dUuyVoDLj68nYFy+BRpysaxnNNyryhMN0DQlZ+1aD4mLb2ryveJAqqC6cGtf7T4lacluq6viOTxDO+pi+zxtTn1Uh89ZDknmA7WJXibplJ0J1BLMD9BdemRuvRRFpfXZB2mOxH9p5yzXRuIgCwAAAABJRU5ErkJggg==;fontFamily=Helvetica;fontSize=16;" vertex="1" parent="1">
          <mxGeometry x="208.82999999999998" y="3669" width="88" height="88" as="geometry" />
        </mxCell>
        <mxCell id="Gp8Uw24KBsA9sYgud_FF-85" value="&lt;font style=&quot;font-size: 16px;&quot; face=&quot;Helvetica&quot;&gt;文件储存&lt;/font&gt;" style="sketch=0;outlineConnect=0;fontColor=#232F3E;gradientColor=none;fillColor=#7AA116;strokeColor=none;dashed=0;verticalLabelPosition=bottom;verticalAlign=top;align=center;html=1;fontSize=12;fontStyle=0;aspect=fixed;pointerEvents=1;shape=mxgraph.aws4.file_cache_on_premises_nfs_linked_datasets;hachureGap=4;jiggle=2;curveFitting=1;fontFamily=Architects Daughter;fontSource=https%3A%2F%2Ffonts.googleapis.com%2Fcss%3Ffamily%3DArchitects%2BDaughter;" vertex="1" parent="1">
          <mxGeometry x="545.25" y="4694" width="78" height="78" as="geometry" />
        </mxCell>
        <mxCell id="Gp8Uw24KBsA9sYgud_FF-86" value="&lt;font color=&quot;#82b366&quot; style=&quot;font-size: 16px;&quot;&gt;&lt;b&gt;自动伸缩&lt;/b&gt;&lt;/font&gt;&lt;div&gt;&lt;font style=&quot;font-size: 26px;&quot;&gt;...&lt;/font&gt;&lt;/div&gt;" style="text;html=1;align=center;verticalAlign=middle;whiteSpace=wrap;rounded=0;fontFamily=Architects Daughter;fontSource=https%3A%2F%2Ffonts.googleapis.com%2Fcss%3Ffamily%3DArchitects%2BDaughter;" vertex="1" parent="1">
          <mxGeometry x="73.5" y="4442" width="77" height="30" as="geometry" />
        </mxCell>
        <mxCell id="Gp8Uw24KBsA9sYgud_FF-88" value="应用实例" style="image;aspect=fixed;html=1;points=[];align=center;fontSize=16;image=img/lib/azure2/compute/Azure_Spring_Cloud.svg;sketch=1;hachureGap=4;jiggle=2;curveFitting=1;fontFamily=Helvetica;" vertex="1" parent="1">
          <mxGeometry x="180.5" y="4408" width="68" height="68" as="geometry" />
        </mxCell>
        <mxCell id="Gp8Uw24KBsA9sYgud_FF-187" style="edgeStyle=orthogonalEdgeStyle;rounded=0;sketch=1;hachureGap=4;jiggle=2;curveFitting=1;orthogonalLoop=1;jettySize=auto;html=1;fontFamily=Architects Daughter;fontSource=https%3A%2F%2Ffonts.googleapis.com%2Fcss%3Ffamily%3DArchitects%2BDaughter;" edge="1" parent="1" target="Gp8Uw24KBsA9sYgud_FF-182">
          <mxGeometry relative="1" as="geometry">
            <mxPoint x="845" y="4455" as="sourcePoint" />
            <Array as="points">
              <mxPoint x="950" y="4455" />
              <mxPoint x="950" y="4150" />
            </Array>
          </mxGeometry>
        </mxCell>
        <mxCell id="Gp8Uw24KBsA9sYgud_FF-189" value="&lt;font style=&quot;font-size: 20px;&quot; face=&quot;Helvetica&quot;&gt;指令下发&lt;/font&gt;" style="edgeLabel;html=1;align=center;verticalAlign=middle;resizable=0;points=[];sketch=1;hachureGap=4;jiggle=2;curveFitting=1;fontFamily=Architects Daughter;fontSource=https%3A%2F%2Ffonts.googleapis.com%2Fcss%3Ffamily%3DArchitects%2BDaughter;" vertex="1" connectable="0" parent="Gp8Uw24KBsA9sYgud_FF-187">
          <mxGeometry x="-0.9532" y="6" relative="1" as="geometry">
            <mxPoint x="103" y="-139" as="offset" />
          </mxGeometry>
        </mxCell>
        <mxCell id="Gp8Uw24KBsA9sYgud_FF-108" value="&lt;font style=&quot;font-size: 18px;&quot;&gt;系统管理服务&lt;/font&gt;" style="rounded=0;whiteSpace=wrap;html=1;sketch=1;hachureGap=4;jiggle=2;curveFitting=1;fontFamily=Architects Daughter;fontSource=https%3A%2F%2Ffonts.googleapis.com%2Fcss%3Ffamily%3DArchitects%2BDaughter;fillColor=#f5f5f5;fontColor=#333333;strokeColor=#666666;align=left;verticalAlign=top;" vertex="1" parent="1">
          <mxGeometry x="389.75" y="4372" width="450" height="150" as="geometry" />
        </mxCell>
        <mxCell id="Gp8Uw24KBsA9sYgud_FF-109" value="应用实例" style="image;aspect=fixed;html=1;points=[];align=center;fontSize=16;image=img/lib/azure2/compute/Azure_Spring_Cloud.svg;sketch=1;hachureGap=4;jiggle=2;curveFitting=1;fontFamily=Helvetica;" vertex="1" parent="1">
          <mxGeometry x="486.5" y="4408" width="68" height="68" as="geometry" />
        </mxCell>
        <mxCell id="Gp8Uw24KBsA9sYgud_FF-110" value="&lt;font color=&quot;#82b366&quot; style=&quot;font-size: 16px;&quot;&gt;&lt;b&gt;自动伸缩&lt;/b&gt;&lt;/font&gt;&lt;div&gt;&lt;font style=&quot;font-size: 26px;&quot;&gt;...&lt;/font&gt;&lt;/div&gt;" style="text;html=1;align=center;verticalAlign=middle;whiteSpace=wrap;rounded=0;fontFamily=Architects Daughter;fontSource=https%3A%2F%2Ffonts.googleapis.com%2Fcss%3Ffamily%3DArchitects%2BDaughter;" vertex="1" parent="1">
          <mxGeometry x="581.5" y="4442" width="77" height="30" as="geometry" />
        </mxCell>
        <mxCell id="Gp8Uw24KBsA9sYgud_FF-111" value="应用实例" style="image;aspect=fixed;html=1;points=[];align=center;fontSize=16;image=img/lib/azure2/compute/Azure_Spring_Cloud.svg;sketch=1;hachureGap=4;jiggle=2;curveFitting=1;fontFamily=Helvetica;" vertex="1" parent="1">
          <mxGeometry x="688.5" y="4408" width="68" height="68" as="geometry" />
        </mxCell>
        <mxCell id="Gp8Uw24KBsA9sYgud_FF-122" value="&lt;font color=&quot;#82b366&quot; style=&quot;font-size: 16px;&quot;&gt;&lt;b&gt;自动伸缩&lt;/b&gt;&lt;/font&gt;&lt;div&gt;&lt;font style=&quot;font-size: 26px;&quot;&gt;...&lt;/font&gt;&lt;/div&gt;" style="text;html=1;align=center;verticalAlign=middle;whiteSpace=wrap;rounded=0;fontFamily=Architects Daughter;fontSource=https%3A%2F%2Ffonts.googleapis.com%2Fcss%3Ffamily%3DArchitects%2BDaughter;" vertex="1" parent="1">
          <mxGeometry x="324" y="4720" width="77" height="30" as="geometry" />
        </mxCell>
        <mxCell id="Gp8Uw24KBsA9sYgud_FF-127" value="&lt;font color=&quot;#82b366&quot; style=&quot;font-size: 16px;&quot;&gt;&lt;b&gt;自动伸缩&lt;/b&gt;&lt;/font&gt;&lt;div&gt;&lt;font style=&quot;font-size: 26px;&quot;&gt;...&lt;/font&gt;&lt;/div&gt;" style="text;html=1;align=center;verticalAlign=middle;whiteSpace=wrap;rounded=0;fontFamily=Architects Daughter;fontSource=https%3A%2F%2Ffonts.googleapis.com%2Fcss%3Ffamily%3DArchitects%2BDaughter;" vertex="1" parent="1">
          <mxGeometry y="4724" width="76" height="33.76" as="geometry" />
        </mxCell>
        <mxCell id="Gp8Uw24KBsA9sYgud_FF-131" value="&lt;font color=&quot;#82b366&quot; style=&quot;font-size: 16px;&quot;&gt;&lt;b&gt;自动伸缩&lt;/b&gt;&lt;/font&gt;&lt;div&gt;&lt;font style=&quot;font-size: 26px;&quot;&gt;...&lt;/font&gt;&lt;/div&gt;" style="text;html=1;align=center;verticalAlign=middle;whiteSpace=wrap;rounded=0;fontFamily=Architects Daughter;fontSource=https%3A%2F%2Ffonts.googleapis.com%2Fcss%3Ffamily%3DArchitects%2BDaughter;" vertex="1" parent="1">
          <mxGeometry x="647.75" y="4731.76" width="77" height="30" as="geometry" />
        </mxCell>
        <mxCell id="Gp8Uw24KBsA9sYgud_FF-132" value="&lt;font style=&quot;font-size: 16px;&quot; face=&quot;Helvetica&quot;&gt;Web防火墙&lt;/font&gt;" style="verticalLabelPosition=bottom;sketch=0;html=1;fillColor=#6ABD46;strokeColor=#ffffff;verticalAlign=top;align=center;points=[[0.085,0.085,0],[0.915,0.085,0],[0.915,0.915,0],[0.085,0.915,0],[0.25,0,0],[0.5,0,0],[0.75,0,0],[1,0.25,0],[1,0.5,0],[1,0.75,0],[0.75,1,0],[0.5,1,0],[0.25,1,0],[0,0.75,0],[0,0.5,0],[0,0.25,0]];pointerEvents=1;shape=mxgraph.cisco_safe.compositeIcon;bgIcon=mxgraph.cisco_safe.architecture.generic_appliance;resIcon=mxgraph.cisco_safe.architecture.web_application_firewall_2;hachureGap=4;jiggle=2;curveFitting=1;fontFamily=Architects Daughter;fontSource=https%3A%2F%2Ffonts.googleapis.com%2Fcss%3Ffamily%3DArchitects%2BDaughter;aspect=fixed;" vertex="1" parent="1">
          <mxGeometry x="162" y="3971" width="88" height="88" as="geometry" />
        </mxCell>
        <mxCell id="Gp8Uw24KBsA9sYgud_FF-136" style="edgeStyle=orthogonalEdgeStyle;rounded=0;sketch=1;hachureGap=4;jiggle=2;curveFitting=1;orthogonalLoop=1;jettySize=auto;html=1;fontFamily=Architects Daughter;fontSource=https%3A%2F%2Ffonts.googleapis.com%2Fcss%3Ffamily%3DArchitects%2BDaughter;" edge="1" parent="1" source="Gp8Uw24KBsA9sYgud_FF-135" target="Gp8Uw24KBsA9sYgud_FF-102">
          <mxGeometry relative="1" as="geometry" />
        </mxCell>
        <mxCell id="Gp8Uw24KBsA9sYgud_FF-135" value="&lt;font style=&quot;font-size: 16px;&quot; face=&quot;Helvetica&quot;&gt;LB&lt;/font&gt;" style="editableCssRules=.*;html=1;shape=image;verticalLabelPosition=bottom;labelBackgroundColor=#ffffff;verticalAlign=top;aspect=fixed;imageAspect=0;image=data:image/svg+xml,PHN2ZyB4bWxucz0iaHR0cDovL3d3dy53My5vcmcvMjAwMC9zdmciIHhtbG5zOnY9Imh0dHBzOi8vdmVjdGEuaW8vbmFubyIgd2lkdGg9IjIwIiBoZWlnaHQ9IjIwIiB2aWV3Qm94PSIwIDAgMjAgMjAiPiYjeGE7CTxzdHlsZSB0eXBlPSJ0ZXh0L2NzcyI+LnN0MCB7IGZpbGw6IHJnYigxMDYsIDE4OSwgNzApOyB9IC5zdDEgeyBmaWxsOiByZ2IoMTg1LCAyMjQsIDE2NSk7IH0gLnN0MiB7IGZpbGw6IHJnYigyMTMsIDIzMiwgMjEyKTsgfSA8L3N0eWxlPiYjeGE7CTxwYXRoIGNsYXNzPSJzdDEiIGQ9Ik0xNiAxMGgydjRoLTJ6bS03IDBoMnY0SDl6bS03IDBoMnY0SDJ6Ii8+JiN4YTsJPHBhdGggY2xhc3M9InN0MCIgZD0iTTkgNWgydjRIOXoiLz4mI3hhOwk8cGF0aCBjbGFzcz0ic3QxIiBkPSJNMiA5aDE2djJIMnoiLz4mI3hhOwk8cGF0aCBjbGFzcz0ic3QyIiBkPSJNNCAwaDEydjVINHoiLz4mI3hhOwk8cGF0aCBjbGFzcz0ic3QxIiBkPSJNMTAgMGg2djVoLTZ6Ii8+JiN4YTsJPHBhdGggY2xhc3M9InN0MiIgZD0iTTE0IDE0aDZ2NmgtNnpNMCAxNGg2djZIMHoiLz4mI3hhOwk8cGF0aCBjbGFzcz0ic3QxIiBkPSJNMyAxNGgzdjZIM3oiLz4mI3hhOwk8cGF0aCBjbGFzcz0ic3QyIiBkPSJNNyAxNGg2djZIN3oiLz4mI3hhOwk8cGF0aCBjbGFzcz0ic3QxIiBkPSJNMTAgMTRoM3Y2aC0zem03IDBoM3Y2aC0zeiIvPiYjeGE7PC9zdmc+;sketch=1;hachureGap=4;jiggle=2;curveFitting=1;fontFamily=Architects Daughter;fontSource=https%3A%2F%2Ffonts.googleapis.com%2Fcss%3Ffamily%3DArchitects%2BDaughter;" vertex="1" parent="1">
          <mxGeometry x="84.5" y="4236" width="55" height="55" as="geometry" />
        </mxCell>
        <mxCell id="Gp8Uw24KBsA9sYgud_FF-184" style="edgeStyle=orthogonalEdgeStyle;rounded=0;sketch=1;hachureGap=4;jiggle=2;curveFitting=1;orthogonalLoop=1;jettySize=auto;html=1;fontFamily=Architects Daughter;fontSource=https%3A%2F%2Ffonts.googleapis.com%2Fcss%3Ffamily%3DArchitects%2BDaughter;startArrow=classic;startFill=1;" edge="1" parent="1" source="Gp8Uw24KBsA9sYgud_FF-146" target="Gp8Uw24KBsA9sYgud_FF-182">
          <mxGeometry relative="1" as="geometry" />
        </mxCell>
        <mxCell id="Gp8Uw24KBsA9sYgud_FF-185" value="&lt;font style=&quot;font-size: 20px;&quot; face=&quot;Helvetica&quot;&gt;MQTT&lt;/font&gt;" style="edgeLabel;html=1;align=center;verticalAlign=middle;resizable=0;points=[];sketch=1;hachureGap=4;jiggle=2;curveFitting=1;fontFamily=Architects Daughter;fontSource=https%3A%2F%2Ffonts.googleapis.com%2Fcss%3Ffamily%3DArchitects%2BDaughter;" vertex="1" connectable="0" parent="Gp8Uw24KBsA9sYgud_FF-184">
          <mxGeometry x="-0.5756" y="4" relative="1" as="geometry">
            <mxPoint as="offset" />
          </mxGeometry>
        </mxCell>
        <mxCell id="Gp8Uw24KBsA9sYgud_FF-146" value="&lt;font face=&quot;Helvetica&quot; style=&quot;font-size: 22px;&quot;&gt;&lt;b&gt;智能设备&lt;/b&gt;&lt;/font&gt;" style="rounded=0;whiteSpace=wrap;html=1;sketch=1;hachureGap=4;jiggle=2;curveFitting=1;fontFamily=Architects Daughter;fontSource=https%3A%2F%2Ffonts.googleapis.com%2Fcss%3Ffamily%3DArchitects%2BDaughter;fillColor=#e1d5e7;strokeColor=#9673a6;align=left;verticalAlign=top;" vertex="1" parent="1">
          <mxGeometry x="876" y="3631" width="500" height="170" as="geometry" />
        </mxCell>
        <mxCell id="Gp8Uw24KBsA9sYgud_FF-155" value="门禁" style="sketch=0;outlineConnect=0;fontColor=#232F3E;gradientColor=none;fillColor=#8C4FFF;strokeColor=none;dashed=0;verticalLabelPosition=bottom;verticalAlign=top;align=center;html=1;fontSize=18;fontStyle=0;aspect=fixed;pointerEvents=1;shape=mxgraph.aws4.network_access_control_list;hachureGap=4;jiggle=2;curveFitting=1;fontFamily=Helvetica;" vertex="1" parent="1">
          <mxGeometry x="949" y="3667" width="78" height="78" as="geometry" />
        </mxCell>
        <mxCell id="Gp8Uw24KBsA9sYgud_FF-156" value="智能开关" style="html=1;verticalLabelPosition=bottom;align=center;labelBackgroundColor=#ffffff;verticalAlign=top;strokeWidth=2;strokeColor=#0080F0;shadow=0;dashed=0;shape=mxgraph.ios7.icons.lightbulb;sketch=1;hachureGap=4;jiggle=2;curveFitting=1;fontFamily=Helvetica;aspect=fixed;fontSize=18;" vertex="1" parent="1">
          <mxGeometry x="1096.06" y="3667" width="59.88" height="78" as="geometry" />
        </mxCell>
        <mxCell id="Gp8Uw24KBsA9sYgud_FF-157" value="语音播报" style="shape=image;html=1;verticalAlign=top;verticalLabelPosition=bottom;labelBackgroundColor=#ffffff;imageAspect=0;aspect=fixed;image=https://cdn2.iconfinder.com/data/icons/football-line-color/32/soccer-21-128.png;sketch=1;hachureGap=4;jiggle=2;curveFitting=1;fontFamily=Helvetica;fontSize=18;" vertex="1" parent="1">
          <mxGeometry x="1217" y="3667" width="78" height="78" as="geometry" />
        </mxCell>
        <mxCell id="Gp8Uw24KBsA9sYgud_FF-76" value="" style="verticalLabelPosition=bottom;aspect=fixed;html=1;shape=mxgraph.salesforce.iot;hachureGap=4;fontFamily=Architects Daughter;fontSource=https%3A%2F%2Ffonts.googleapis.com%2Fcss%3Ffamily%3DArchitects%2BDaughter;fillColor=#f5f5f5;fontColor=#333333;strokeColor=#666666;verticalAlign=top;" vertex="1" parent="1">
          <mxGeometry x="1336" y="3633" width="40" height="40" as="geometry" />
        </mxCell>
        <mxCell id="Gp8Uw24KBsA9sYgud_FF-186" value="" style="edgeStyle=orthogonalEdgeStyle;rounded=0;sketch=1;hachureGap=4;jiggle=2;curveFitting=1;orthogonalLoop=1;jettySize=auto;html=1;fontFamily=Architects Daughter;fontSource=https%3A%2F%2Ffonts.googleapis.com%2Fcss%3Ffamily%3DArchitects%2BDaughter;" edge="1" parent="1" source="Gp8Uw24KBsA9sYgud_FF-167" target="Gp8Uw24KBsA9sYgud_FF-146">
          <mxGeometry relative="1" as="geometry" />
        </mxCell>
        <mxCell id="Gp8Uw24KBsA9sYgud_FF-167" value="&lt;b&gt;&lt;font style=&quot;font-size: 22px;&quot;&gt;第三方平台&lt;/font&gt;&lt;/b&gt;" style="rounded=0;whiteSpace=wrap;html=1;sketch=1;hachureGap=4;jiggle=2;curveFitting=1;fontFamily=Helvetica;fillColor=none;verticalAlign=top;align=left;fontSize=20;dashed=1;dashPattern=12 12;" vertex="1" parent="1">
          <mxGeometry x="877.06" y="3899.88" width="500" height="930.12" as="geometry" />
        </mxCell>
        <mxCell id="Gp8Uw24KBsA9sYgud_FF-174" value="&lt;font style=&quot;font-size: 20px;&quot; face=&quot;Helvetica&quot;&gt;微信API&lt;/font&gt;" style="shape=image;html=1;verticalAlign=top;verticalLabelPosition=bottom;labelBackgroundColor=#ffffff;imageAspect=0;aspect=fixed;image=https://cdn4.iconfinder.com/data/icons/socialcones/508/WeChat-128.png;sketch=1;hachureGap=4;jiggle=2;curveFitting=1;fontFamily=Architects Daughter;fontSource=https%3A%2F%2Ffonts.googleapis.com%2Fcss%3Ffamily%3DArchitects%2BDaughter;" vertex="1" parent="1">
          <mxGeometry x="1066" y="4378" width="128" height="128" as="geometry" />
        </mxCell>
        <mxCell id="Gp8Uw24KBsA9sYgud_FF-176" style="edgeStyle=orthogonalEdgeStyle;rounded=0;sketch=1;hachureGap=4;jiggle=2;curveFitting=1;orthogonalLoop=1;jettySize=auto;html=1;fontFamily=Architects Daughter;fontSource=https%3A%2F%2Ffonts.googleapis.com%2Fcss%3Ffamily%3DArchitects%2BDaughter;exitX=0.487;exitY=1.017;exitDx=0;exitDy=0;exitPerimeter=0;" edge="1" parent="1" source="Gp8Uw24KBsA9sYgud_FF-102" target="Gp8Uw24KBsA9sYgud_FF-174">
          <mxGeometry relative="1" as="geometry">
            <Array as="points">
              <mxPoint x="107" y="4580" />
              <mxPoint x="1130" y="4580" />
            </Array>
          </mxGeometry>
        </mxCell>
        <mxCell id="Gp8Uw24KBsA9sYgud_FF-177" value="&lt;font style=&quot;font-size: 20px;&quot; face=&quot;Helvetica&quot;&gt;免鉴权&lt;/font&gt;" style="edgeLabel;html=1;align=center;verticalAlign=middle;resizable=0;points=[];sketch=1;hachureGap=4;jiggle=2;curveFitting=1;fontFamily=Architects Daughter;fontSource=https%3A%2F%2Ffonts.googleapis.com%2Fcss%3Ffamily%3DArchitects%2BDaughter;" vertex="1" connectable="0" parent="Gp8Uw24KBsA9sYgud_FF-176">
          <mxGeometry x="-0.0228" y="10" relative="1" as="geometry">
            <mxPoint as="offset" />
          </mxGeometry>
        </mxCell>
        <mxCell id="Gp8Uw24KBsA9sYgud_FF-182" value="&lt;font style=&quot;font-size: 20px;&quot; face=&quot;Helvetica&quot;&gt;物联网开发平台&lt;/font&gt;" style="sketch=0;outlineConnect=0;fontColor=#232F3E;gradientColor=none;fillColor=#7AA116;strokeColor=none;dashed=0;verticalLabelPosition=bottom;verticalAlign=top;align=center;html=1;fontSize=12;fontStyle=0;aspect=fixed;pointerEvents=1;shape=mxgraph.aws4.sensor;hachureGap=4;jiggle=2;curveFitting=1;fontFamily=Architects Daughter;fontSource=https%3A%2F%2Ffonts.googleapis.com%2Fcss%3Ffamily%3DArchitects%2BDaughter;" vertex="1" parent="1">
          <mxGeometry x="1062" y="4059" width="128" height="138.67" as="geometry" />
        </mxCell>
        <mxCell id="Gp8Uw24KBsA9sYgud_FF-192" style="edgeStyle=orthogonalEdgeStyle;rounded=0;sketch=1;hachureGap=4;jiggle=2;curveFitting=1;orthogonalLoop=1;jettySize=auto;html=1;fontFamily=Architects Daughter;fontSource=https%3A%2F%2Ffonts.googleapis.com%2Fcss%3Ffamily%3DArchitects%2BDaughter;" edge="1" parent="1" source="Gp8Uw24KBsA9sYgud_FF-190" target="Gp8Uw24KBsA9sYgud_FF-93">
          <mxGeometry relative="1" as="geometry" />
        </mxCell>
        <mxCell id="Gp8Uw24KBsA9sYgud_FF-190" value="" style="rounded=0;whiteSpace=wrap;html=1;sketch=1;hachureGap=4;jiggle=2;curveFitting=1;fontFamily=Architects Daughter;fontSource=https%3A%2F%2Ffonts.googleapis.com%2Fcss%3Ffamily%3DArchitects%2BDaughter;fillColor=#d5e8d4;strokeColor=#82b366;dashed=1;verticalAlign=top;align=left;" vertex="1" parent="1">
          <mxGeometry x="-339" y="3633" width="190" height="170" as="geometry" />
        </mxCell>
        <mxCell id="Gp8Uw24KBsA9sYgud_FF-191" value="" style="shape=image;verticalLabelPosition=bottom;labelBackgroundColor=default;verticalAlign=top;aspect=fixed;imageAspect=0;image=data:image/png,iVBORw0KGgoAAAANSUhEUgAAAKAAAAAoCAYAAAB5LPGYAAAABmJLR0QA/wD/AP+gvaeTAAAJBElEQVR42u1bCZAMVxhu7OzM7iISd8S9WygiQuIoSiqIoMq1cZSIne5dVxQbCSlEjhUiiKyIUEgiRUiCiCNhS5A5rCuUM4gShVIRirBh17HYzf9mvl5PT/dMz0wPOd5X9dXOdPd70/3e1//13kqSgICAgICAgICAgICAgICAgICAgICKFX3L2N1pXe1u56cOj3O33SNfJhYTC+we5yH6Oz/endZbKs4qLQZLwFLEe5z97F75FAQXikftLrmLGDWB6LG9bwIJahUnrmvxHnmp3aMMc7jSOyW40tuR9evs++6VV9D5fFx3x+5VXhUDKBA59gxNJCHllgjKI8+Vtmc8EqxJWa9Sma6bRSxkbdh3MZACkbldr7wE4rtBVi81nLb23PQGZBXHSof7xv8PhqrMf+x5EkJNb+zFR8mE6nbjPUr/f9kAjiJW577PIH6ic91U4hsm+ssgriQm6pybT/yVaHuAz5tHnB7G9RWJjxucYx7uAnGewfkmxFtEOXaPQ1ksCe8gBPhZNP04vM6OzHU7PPIu+nvCR69zK/39yOZJezIGd9+d/TJxBHEo0UGcQ1xEjMOxCriWCWeMiT69xAMG53pwvxcKKcRNETIlQgGyikQysT/G4SDxDnGvwfXz8DzvEvtqWIO4jFhEHKxzvoclM+jwKs+orjfBo9SMuA+3vN9Exrw+MTf9UYvEV554hphDrI2BrMQJMBHHGmEw2UA+HaLPGpiw8cTJxAU6vE48b3CuygMQIHsZPif+TCzAMzP+QfyWOJrYQqefDsTbxCvEv2DpLnH8AGPBzl/G+PHnj1syi5S9Toc41kRWspHHUdvb6OOmL4v2ysNJkM9R388TR9KxjcQi/zXOCzaX3CzK2y5FXI3JqGVCgEMwgBOJ4zhqk6ZJuK4O+t8TJmvGyE914CwPE9lafH4B1voc8ScI6ocQAmZoABHlIsZj43ONEyqzpIeIR+BV2kGML8Wg5idv8wnDrbwctngp8eCs2zrHlozahpHuVqUVie84rj3ncMl1orjtLAyI6gZUAXYkLieuI7blBOjGgJ8gnsJxZj0b8kMBq7H7Hxjn7uAsG89CCERFAV7AUFiMcajCvdBMuLMR3+4nLiTW5dowN73T8iSMxHCaiYLV+cJsl4LyC4lXnkHDUSpUmySXXI2s42/+Ns7vI7zlOEzIO8SHibuIPQ0miLEXrFoqF1gXw93yGI7jOZpj00ywa4wF2BDWifEqBMQ+N9dcZ1aATHhfap4hm/u8E9aUP8aSuw+571WsEuANJohw3SLqf8UsyTAjvhJL6JJbq+6YFbYjvO1EvLXZiE8qQox6XARhqe6Dua2bcDMl7wbxrI4As03GbEM095eKBCgapkaQhJgVYDKelVm6FWFyL+dZLEhCPPKfPgvocbYPU4Dr/WUbeRwVsW1kBbtTX8vo2Hm2gkLcbHPLukE/s35wxXOjuPX6ENJ4xDwtDHgQE5OFdhOREUua0k0xJjfHgmHdE8Qim+WeEAJk8W57AwGyl4sle22I/Yhj8YxaAUayejXSUgGSCI5FUv+jeG4ORHSdeEUv6yVxXpRy08sFZs2yDNf9SxTFYA8GIgWiMZrIbnAZK9D2K8SJKp6Au1lK3KwR4OsG2a6WqToZup417oZwYEMQi62yvEFN7yqycJa1HiYOI04hLsFzFODF1I7DBa6oXBZJzATExeGwI9qWt0iAygZkp3PCaZe0eXBVrn7oE6JvNYWyX5tXaU7W8BL6DagXJbjT2qBNXoS3PZkb2GQMqNFEloZA8uC6LyID5t2vC0XZzRa5YF1nQzyKsgafLVcP0Y49QyaX5RajH5Y0zsT3AmSsd2DxWXysEDshfjRa7VDQfiiuDcZZ3HhbmoS8AjGcDHtrFW3ZSvA62/rc98ZBSRoLeQZWMCCWsXnTWkKcVyO45dYY6DWaAamv437V1YxqmLxpaNNEx6JKOgK0Eupv89WG5hDka0Ha1cXzeuD+8rkYsAJccbgxoFaAY3UKzVouiI0AXRnJ2HxQHO9WBljRp7/k4hN1UUJuWq3A0o9zoLqVK4LuWWzzHbGZZkBW6bgdvgCbA7d1KEjfWgFmmnTBPUPcc0f89hZN8lMGv3kLVsYIVaNMQlpK+kuLCleSMuuCa1v+apK7/AaCOCHtHBidb/cv7WFXjbJW//eU5f4MWl4YRQzYVCNAJsplcFnJOgJ04lhmGALMwYQHc79FiMGM0AiZ+llYYi1YMfw0QoN6Jp49EgGeRQnFSIBNH2iV07+bxV+O8Ykmil3OJeUZViOkfgOsnyujibpyEm7tUQOtAJkY1EX1Sjj3LFwfK9n8iGMujRUKJcAdIe6jMIgAK8NqXEdh3AhP4ZoDiEmtFiArwk8KIsAdkvllwtExESHFcRklCYVbXi25RpQNqwNXVhyJd3ZJH7QEF3DNpqEP0bnDuMYd5S1rBcgm+i1u4tXMjxW8xyAGfB/HR98HAbLseh9+bwoE2BnxlIJ4bhxekI9RGipGtl4qCgFqd7aURlY8NogAZ0n3LlEasRAhR2zgcDunclntMcpqe5kUb3tKNnaobcmlvx9g+XKdjVnZBedZhpxioQBb4nNrnOsB1/gecQDE9zbOLcSEdDEpwN9DrILc0RGgDcmFmXqfush/hiuGTwhSgL+FF0kP7F63wdWrVYA+6HOgBS64IKYCRDyYftcd+4VIx6axbJatYti2OluwUgtLWKignE3n991b/1NmOram12NkyQi1exEx321VfGz3jAW3qgqwJawHL5w4CKwPJmwp53aTUOQtkAKXsvQEmC8F34BgFAOOQtF7ELE3koxWkn9vXj2UfbTlEVanY7taTmqShi+wAnGRK5voYZGByPOQvEWbhBTFXIC+UdjirO9wy1/f3cFiGd0WWD4VjWE52GrAYk2myNcL10CQkqb2tlanmKoV4ErEjsHAisJvWjj8j0mB66yj4JoXwxUa7TwvjRdviHR3SW+AFLjrJ5I6IOON+yLAEmtIO1bIymX6l92UI/5/yQxLcPm+/5qjbDfKhCMaxEkCRigHa2z2XykqGJRzBAQEBAQEBAQEBAQEBAQEBAQEBARK8DfGMMVSVExOrwAAAABJRU5ErkJggg==;" vertex="1" parent="1">
          <mxGeometry x="-324" y="3705" width="160" height="40" as="geometry" />
        </mxCell>
      </root>
    </mxGraphModel>
  </diagram>
</mxfile>
